# Blender 4.3.2
# www.blender.org
o Cube
v 0.213190 1.926478 -0.213190
v 1.000000 0.213190 -1.000000
v 0.213190 1.926478 0.213190
v 1.000000 0.213190 1.000000
v -0.213190 1.926478 -0.213190
v -1.000000 0.213190 -1.000000
v -0.213190 1.926478 0.213190
v -1.000000 0.213190 1.000000
v 1.000000 -0.618189 -1.000000
v 0.618189 -1.000000 -0.618189
v 0.618189 -1.000000 0.618189
v 1.000000 -0.618189 1.000000
v -1.000000 -0.618189 -1.000000
v -0.618189 -1.000000 -0.618189
v -0.618189 -1.000000 0.618189
v -1.000000 -0.618189 1.000000
vn -1.0000 -0.0000 -0.0000
vn 1.0000 -0.0000 -0.0000
vn -0.0000 1.0000 -0.0000
vn -0.0000 -0.0000 1.0000
vn -0.0000 0.4173 0.9088
vn 0.9088 0.4173 -0.0000
vn -0.9088 0.4173 -0.0000
vn -0.0000 0.4173 -0.9088
vn -0.0000 -1.0000 -0.0000
vn -0.7071 -0.7071 -0.0000
vn -0.0000 -0.7071 -0.7071
vn -0.0000 -0.7071 0.7071
vn 0.7071 -0.7071 -0.0000
vn -0.0000 -0.0000 -1.0000
vt 0.422726 0.000000
vt 0.526649 0.000000
vt 0.526649 0.250000
vt 0.422726 0.250000
vt 0.422726 0.500000
vt 0.526649 0.500000
vt 0.526649 0.750000
vt 0.422726 0.750000
vt 0.723351 0.598351
vt 0.776649 0.598351
vt 0.776649 0.651649
vt 0.723351 0.651649
vt 0.526649 1.000000
vt 0.422726 1.000000
vt 0.875000 0.750000
vt 0.625000 0.750000
vt 0.875000 0.500000
vt 0.625000 0.500000
vt 0.172726 0.547726
vt 0.327274 0.547726
vt 0.327274 0.702274
vt 0.172726 0.702274
vt 0.125000 0.750000
vt 0.125000 0.500000
vt 0.375000 0.500000
vt 0.375000 0.750000
s 0
f 16/1/1 8/2/1 6/3/1 13/4/1
f 9/5/2 2/6/2 4/7/2 12/8/2
f 1/9/3 5/10/3 7/11/3 3/12/3
f 12/8/4 4/7/4 8/13/4 16/14/4
f 3/12/5 7/11/5 8/15/5 4/16/5
f 1/9/6 3/12/6 4/7/6 2/6/6
f 7/11/7 5/10/7 6/17/7 8/15/7
f 5/10/8 1/9/8 2/18/8 6/17/8
f 14/19/9 10/20/9 11/21/9 15/22/9
f 14/19/10 15/22/10 16/23/10 13/24/10
f 10/20/11 14/19/11 13/24/11 9/25/11
f 15/22/12 11/21/12 12/26/12 16/23/12
f 11/21/13 10/20/13 9/5/13 12/8/13
f 13/4/14 6/3/14 2/6/14 9/5/14
