mtllib MedKit2.mtl
o Default
v 0 0 0
v 0 0.25 0
v 0.9375 0.25 0
v 0.9375 0 0
v -1.1102230246251565e-16 0 -0.5625
v 0 0.25 0
v -1.1102230246251565e-16 0.25 -0.5625
v 0 0 0
v 0.9375 0 -0.5625
v -1.1102230246251565e-16 0.25 -0.5625
v 0.9375 0.25 -0.5625
v -1.1102230246251565e-16 0 -0.5625
v 0.9375 0 0
v 0.9375 0.25 -0.5625
v 0.9375 0.25 0
v 0.9375 0 -0.5625
v 0 0.25 0
v 0.9375 0.25 -0.5625
v -1.1102230246251565e-16 0.25 -0.5625
v 0.9375 0.25 0
v -1.1102230246251565e-16 0 -0.5625
v 0.9375 0 0
v 0 0 0
v 0.9375 0 -0.5625
vt 0 0.25
vt 0.234375 0.3125
vt 0 0.3125
vt 0.234375 0.25
vt 0.25 0
vt 0.390625 0.0625
vt 0.25 0.0625
vt 0.390625 0
vt 0.25 0.25
vt 0.484375 0.390625
vt 0.25 0.390625
vt 0.484375 0.25
vt 0.5 0.25
vt 0.734375 0.390625
vt 0.5 0.390625
vt 0.734375 0.25
vn 0 0 1
vn -1 0 0
vn 0 0 -1
vn 1 0 0
vn 0 1 0
vn 0 -1 0
g Scene
usemtl Medkit Texture Pack
f 1/1/1 3/2/1 2/3/1
f 1/1/1 4/4/1 3/2/1
f 5/5/2 6/6/2 7/7/2
f 5/5/2 8/8/2 6/6/2
f 9/1/3 10/2/3 11/3/3
f 9/1/3 12/4/3 10/2/3
f 13/5/4 14/6/4 15/7/4
f 13/5/4 16/8/4 14/6/4
f 17/9/5 18/10/5 19/11/5
f 17/9/5 20/12/5 18/10/5
f 21/13/6 22/14/6 23/15/6
f 21/13/6 24/16/6 22/14/6
