# Blender 4.3.0
# www.blender.org
mtllib TheRock3.mtl
o Cube.001
v -0.231361 0.332826 0.348833
v 0.231361 0.332826 0.348833
v -0.231361 0.071452 0.073978
v -0.231361 0.215003 0.295879
v 0.231361 0.215003 0.295879
v 0.231361 0.071452 0.073978
v -0.059371 0.402317 -0.064965
v -0.231361 0.187314 -0.231361
v 0.059371 0.402317 -0.064965
v 0.231361 0.187314 -0.231361
v -0.059371 0.434824 0.059362
v -0.231361 0.338119 0.344356
v 0.059371 0.434824 0.059362
v 0.231361 0.338119 0.344356
v -0.231361 0.142794 -0.231361
v -0.231361 0.071452 -0.160019
v 0.231361 0.071452 -0.160019
v 0.231361 0.142794 -0.231361
vn -0.0000 0.9675 -0.2530
vn -0.0000 0.6458 0.7635
vn -0.0000 -0.4099 0.9121
vn 1.0000 -0.0000 -0.0000
vn -0.0000 -0.8396 0.5432
vn -1.0000 -0.0000 -0.0000
vn -0.0000 0.6120 -0.7908
vn -0.0000 0.9470 0.3213
vn -0.6940 0.6965 -0.1824
vn 0.6940 0.6965 -0.1824
vn -0.0000 -0.0000 -1.0000
vn -0.0000 -0.7071 -0.7071
vn -0.0000 -1.0000 -0.0000
vt 0.717923 0.562024
vt 0.782077 0.562024
vt 0.782077 0.608367
vt 0.717923 0.608367
vt 0.520173 0.750000
vt 0.520173 1.000000
vt 0.516215 1.000000
vt 0.516215 0.750000
vt 0.452558 0.750000
vt 0.452558 1.000000
vt 0.375000 0.538545
vt 0.437067 0.500000
vt 0.475800 0.500000
vt 0.520173 0.747104
vt 0.516215 0.750000
vt 0.452558 0.750000
vt 0.375000 0.664969
vt 0.125000 0.664969
vt 0.375000 0.750000
vt 0.125000 0.750000
vt 0.375000 0.085031
vt 0.452558 0.000000
vt 0.516215 0.000000
vt 0.520173 0.002896
vt 0.475799 0.250000
vt 0.437067 0.250000
vt 0.375000 0.211455
vt 0.625000 0.500000
vt 0.875000 0.500000
vt 0.875000 0.670392
vt 0.625000 0.670392
vt 0.437067 0.250000
vt 0.475800 0.250000
vt 0.125000 0.538545
vt 0.125000 0.500000
vt 0.375000 0.500000
s 0
usemtl Material.002
f 9/1/1 7/2/1 11/3/1 13/4/1
f 14/5/2 12/6/2 1/7/2 2/8/2
f 5/9/3 2/8/3 1/7/3 4/10/3
f 17/11/4 18/12/4 10/13/4 14/14/4 2/15/4 5/16/4 6/17/4
f 3/18/5 6/17/5 5/19/5 4/20/5
f 3/21/6 4/22/6 1/23/6 12/24/6 8/25/6 15/26/6 16/27/6
f 7/2/7 9/1/7 10/28/7 8/29/7
f 13/4/8 11/3/8 12/30/8 14/31/8
f 11/3/9 7/2/9 8/29/9 12/30/9
f 14/14/10 10/13/10 9/1/10 13/4/10
f 15/32/11 8/33/11 10/13/11 18/12/11
f 17/11/12 16/34/12 15/35/12 18/36/12
f 16/34/13 17/11/13 6/17/13 3/18/13
