# Blender 4.3.2
# www.blender.org
mtllib Fireball.mtl
o Icosphere
v -0.276388 -0.447220 0.850649
v -0.894426 -0.447216 0.000000
v -0.276388 -0.447220 -0.850649
v 0.276388 0.447220 0.850649
v -0.723607 0.447220 0.525725
v -0.723607 0.447220 -0.525725
v 0.276388 0.447220 -0.850649
v 0.894426 1.877483 0.000000
v 0.000000 2.430268 0.000000
v -0.162456 -0.850654 0.499995
v 0.425323 -0.850654 0.309011
v 0.262869 -0.525738 0.809012
v 0.850648 -0.525736 0.000000
v 0.425323 -0.850654 -0.309011
v -0.525730 -0.850652 0.000000
v -0.162456 -0.850654 -0.499995
v 0.262869 -0.525738 -0.809012
v 0.951058 0.000000 0.309013
v 0.951058 0.000000 -0.309013
v 0.000000 1.430268 1.435259
v 0.587786 0.000000 0.809017
v -0.951058 0.000000 0.309013
v -0.587786 0.000000 0.809017
v -0.587786 0.000000 -0.809017
v -0.951058 0.000000 -0.309013
v 0.587786 0.000000 -0.809017
v 0.000000 1.430268 -1.313797
v 0.688189 0.525736 0.499997
v -0.262869 0.525738 0.809012
v -0.850648 1.956004 0.000000
v -0.262869 0.525738 -0.809012
v 0.688189 0.525736 -0.499997
v 0.162456 0.850654 0.499995
v 0.525730 0.850652 0.000000
v -0.425323 0.850654 0.309011
v -0.425323 0.850654 -0.309011
v 0.162456 0.850654 -0.499995
vn -0.0000 -1.0000 -0.0000
vn 0.0297 -0.3012 0.9531
vn -0.6882 -0.5257 0.5000
vn -0.6882 -0.5257 -0.5000
vn 0.7236 -0.4472 0.5257
vn -0.4225 -0.2122 0.8812
vn -0.9921 -0.1256 -0.0000
vn -0.3681 -0.1712 -0.9139
vn 0.7236 -0.4472 -0.5257
vn 0.4089 0.6617 0.6284
vn -0.4713 0.6617 0.5831
vn 0.2103 0.3374 -0.9176
vn 0.0385 0.6617 -0.7488
vn -0.8332 0.2992 -0.4651
vn 0.7812 0.2600 -0.5676
vn 0.4911 0.7947 -0.3568
vn 0.4089 0.6617 -0.6284
vn -0.2984 0.2600 -0.9183
vn -0.1876 0.7947 -0.5773
vn -0.4713 0.6617 -0.5831
vn -0.9656 0.2600 -0.0000
vn 0.9333 0.3591 -0.0000
vn 0.2103 0.3374 0.9176
vn -0.2984 0.2600 0.9183
vn -0.1876 0.7947 0.5773
vn 0.0385 0.6617 0.7488
vn 0.7812 0.2600 0.5676
vn 0.4911 0.7947 0.3568
vn -0.8332 0.2992 0.4651
vn 0.7405 0.1308 -0.6591
vn 0.7947 0.1876 -0.5773
vn 0.5746 0.3304 -0.7488
vn 0.1340 0.4529 0.8814
vn -0.7611 0.4704 0.4465
vn -0.5346 0.3304 -0.7779
vn -0.8076 0.1323 -0.5747
vn -0.9987 0.0513 -0.0000
vn -0.8076 0.1323 0.5747
vn -0.5346 0.3304 0.7779
vn -0.7892 0.4877 -0.3732
vn 0.1422 0.5352 -0.8327
vn 0.5746 0.3304 0.7488
vn 0.7947 0.1876 0.5773
vn 0.7405 0.1308 0.6591
vn 0.5930 0.4735 0.6512
vn 0.3181 -0.1966 -0.9275
vn 0.0392 -0.2448 -0.9688
vn -0.8026 0.1256 -0.5831
vn -0.8026 0.1256 0.5831
vn 0.6618 0.5118 -0.5478
vn 0.3806 -0.2352 0.8943
vn 0.9995 0.0301 -0.0000
vn 0.9822 -0.1876 -0.0000
vn 0.1876 -0.7947 -0.5773
vn -0.0385 -0.6617 -0.7488
vn 0.6071 -0.7947 -0.0000
vn -0.0385 -0.6617 0.7488
vn 0.1876 -0.7947 0.5773
vt 0.954545 0.078731
vt 0.772727 0.078731
vt 0.590909 0.078731
vt 0.409092 0.078731
vt 0.227273 0.078731
vt 0.090910 0.157461
vt 0.181819 0.157461
vt 0.136365 0.236191
vt 1.000000 0.157461
vt 0.954545 0.236191
vt 0.863636 0.236191
vt 0.818182 0.157461
vt 0.863636 0.078731
vt 0.772727 0.236191
vt 0.681818 0.236191
vt 0.636364 0.157461
vt 0.681818 0.078731
vt 0.318182 0.078731
vt 0.363637 0.157461
vt 0.318182 0.236191
vt 0.227273 0.236191
vt 0.045455 0.236191
vt 0.590909 0.236191
vt 0.500000 0.078731
vt 0.545455 0.157461
vt 0.500000 0.236191
vt 0.409092 0.236191
vt 0.181819 0.314921
vt 0.272728 0.314921
vt 0.227273 0.393651
vt 0.000000 0.314921
vt 0.090910 0.314921
vt 0.045455 0.393651
vt 0.727273 0.314921
vt 0.818182 0.314921
vt 0.772727 0.393651
vt 0.545455 0.314921
vt 0.636364 0.314921
vt 0.590909 0.393651
vt 0.363637 0.314921
vt 0.454546 0.314921
vt 0.409092 0.393651
vt 0.500000 0.393651
vt 0.454546 0.472382
vt 0.681818 0.393651
vt 0.636364 0.472382
vt 0.863636 0.393651
vt 0.818182 0.472382
vt 0.909091 0.314921
vt 0.136365 0.393651
vt 0.090910 0.472382
vt 0.318182 0.393651
vt 0.272728 0.472382
vt 0.136365 0.078731
s 0
f 10/1/1 15/2/1 16/3/1 14/4/1 11/5/1
f 1/6/2 12/7/2 20/8/2
f 10/1/3 1/9/3 23/10/3 22/11/3 2/12/3 15/13/3
f 15/2/4 2/12/4 25/14/4 24/15/4 3/16/4 16/17/4
f 12/7/5 11/18/5 13/19/5 18/20/5 21/21/5
f 1/6/6 20/8/6 23/22/6
f 2/12/7 22/11/7 25/14/7
f 3/16/8 24/15/8 27/23/8
f 13/19/9 14/24/9 17/25/9 26/26/9 19/27/9
f 4/28/10 28/29/10 33/30/10
f 5/31/11 29/32/11 35/33/11
f 6/34/12 30/35/12 36/36/12
f 7/37/13 31/38/13 37/39/13
f 8/40/14 32/41/14 34/42/14
f 34/42/15 37/43/15 9/44/15
f 34/42/16 32/41/16 37/43/16
f 32/41/17 7/37/17 37/43/17
f 37/39/18 36/45/18 9/46/18
f 37/39/19 31/38/19 36/45/19
f 31/38/20 6/34/20 36/45/20
f 36/36/21 35/47/21 9/48/21
f 36/36/22 30/35/22 35/47/22
f 30/35/23 5/49/23 35/47/23
f 35/33/24 33/50/24 9/51/24
f 35/33/25 29/32/25 33/50/25
f 29/32/26 4/28/26 33/50/26
f 33/30/27 34/52/27 9/53/27
f 33/30/28 28/29/28 34/52/28
f 28/29/29 8/40/29 34/52/29
f 19/27/30 32/41/30 8/40/30
f 19/27/31 26/26/31 32/41/31
f 26/26/32 7/37/32 32/41/32
f 27/23/33 31/38/33 7/37/33
f 27/23/34 24/15/34 31/38/34
f 24/15/35 6/34/35 31/38/35
f 25/14/36 30/35/36 6/34/36
f 25/14/37 22/11/37 30/35/37
f 22/11/38 5/49/38 30/35/38
f 23/22/39 29/32/39 5/31/39
f 23/22/40 20/8/40 29/32/40
f 20/8/41 4/28/41 29/32/41
f 21/21/42 28/29/42 4/28/42
f 21/21/43 18/20/43 28/29/43
f 18/20/44 8/40/44 28/29/44
f 26/26/45 27/23/45 7/37/45
f 26/26/46 17/25/46 27/23/46
f 17/25/47 3/16/47 27/23/47
f 24/15/48 25/14/48 6/34/48
f 22/11/49 23/10/49 5/49/49
f 20/8/50 21/21/50 4/28/50
f 20/8/51 12/7/51 21/21/51
f 18/20/52 19/27/52 8/40/52
f 18/20/53 13/19/53 19/27/53
f 14/24/54 16/3/54 17/25/54
f 16/3/55 3/16/55 17/25/55
f 13/19/56 11/18/56 14/4/56
f 10/54/57 12/7/57 1/6/57
f 10/54/58 11/5/58 12/7/58
