# Blender v3.0.0 OBJ File: 'Gem.blend'
# www.blender.org
mtllib Gem.mtl
o Cube
v 0.542883 2.300254 -0.630169
v 0.542883 2.893943 -0.184542
v 0.542883 0.822510 -0.184542
v 0.542883 1.416198 -0.630170
v 0.542883 2.893943 0.184542
v 0.542883 2.300254 0.630170
v 0.542883 1.416198 0.630169
v 0.542883 0.822510 0.184542
v -0.542883 2.893943 -0.184542
v -0.542883 2.300254 -0.630170
v -0.542883 1.416198 -0.630169
v -0.542883 0.822510 -0.184542
v -0.542883 2.300254 0.630169
v -0.542883 2.893943 0.184542
v -0.542883 0.822510 0.184542
v -0.542883 1.416198 0.630170
v -0.344160 0.434798 -0.556093
v -0.344160 1.027512 -1.000000
v -0.344160 1.027512 1.000000
v -0.344160 0.434798 0.556093
v 0.344160 3.281654 -0.556093
v 0.344160 2.688940 -1.000000
v 0.344160 1.027512 -1.000000
v 0.344160 0.434798 -0.556093
v -0.344160 3.281654 0.556093
v -0.344160 2.688940 1.000000
v 0.344160 2.688940 1.000000
v 0.344160 3.281654 0.556093
v 0.344160 0.434798 0.556093
v 0.344160 1.027512 1.000000
v -0.344160 2.688940 -1.000000
v -0.344160 3.281654 -0.556093
vt 0.625000 0.555488
vt 0.875000 0.555488
vt 0.875000 0.694512
vt 0.625000 0.694512
vt 0.590953 0.151635
vt 0.590953 0.098365
vt 0.625000 0.055488
vt 0.625000 0.194512
vt 0.427050 0.250000
vt 0.572950 0.250000
vt 0.572950 0.500000
vt 0.427050 0.500000
vt 0.590953 0.651635
vt 0.590953 0.598365
vt 0.427050 0.750000
vt 0.572950 0.750000
vt 0.572950 1.000000
vt 0.427050 1.000000
vt 0.538817 0.034047
vt 0.461183 0.034047
vt 0.427050 0.000000
vt 0.572950 0.000000
vt 0.409047 0.598365
vt 0.461183 0.534047
vt 0.538817 0.534047
vt 0.538817 0.715953
vt 0.461183 0.715953
vt 0.409047 0.651635
vt 0.125000 0.555488
vt 0.375000 0.555488
vt 0.375000 0.694512
vt 0.125000 0.694512
vt 0.461183 0.215953
vt 0.538817 0.215953
vt 0.409047 0.098365
vt 0.409047 0.151635
vt 0.375000 0.194512
vt 0.375000 0.055488
vt 0.125000 0.500000
vt 0.375000 0.500000
vt 0.625000 0.750000
vt 0.625000 1.000000
vt 0.375000 0.750000
vt 0.125000 0.750000
vt 0.625000 0.250000
vt 0.625000 0.500000
vn 0.0000 1.0000 0.0000
vn -0.8899 0.4561 0.0000
vn 0.0000 0.0000 -1.0000
vn 0.8899 0.4561 0.0000
vn 0.0000 0.0000 1.0000
vn -0.8809 0.0000 0.4733
vn 1.0000 0.0000 0.0000
vn 0.0000 -1.0000 0.0000
vn -0.8809 0.0000 -0.4733
vn -1.0000 0.0000 0.0000
vn 0.8899 -0.4561 0.0000
vn -0.8899 -0.4561 0.0000
vn 0.8809 0.0000 0.4733
vn 0.0000 -0.5995 -0.8004
vn 0.0000 0.5995 0.8004
vn 0.0000 -0.5995 0.8004
vn 0.0000 0.5995 -0.8004
vn -0.9362 -0.2108 0.2811
vn -0.9362 -0.2108 -0.2811
vn 0.9362 0.2108 -0.2811
vn 0.9362 -0.2108 -0.2811
vn -0.9362 0.2108 0.2811
vn 0.9362 -0.2108 0.2811
vn 0.9362 0.2108 0.2811
vn -0.9362 0.2108 -0.2811
vn 0.8809 0.0000 -0.4733
usemtl Material
s off
f 21/1/1 32/2/1 25/3/1 28/4/1
f 9/5/2 14/6/2 25/7/2 32/8/2
f 18/9/3 31/10/3 22/11/3 23/12/3
f 5/13/4 2/14/4 21/1/4 28/4/4
f 30/15/5 27/16/5 26/17/5 19/18/5
f 13/19/6 16/20/6 19/21/6 26/22/6
f 3/23/7 4/24/7 1/25/7 2/14/7 5/13/7 6/26/7 7/27/7 8/28/7
f 17/29/8 24/30/8 29/31/8 20/32/8
f 11/33/9 10/34/9 31/10/9 18/9/9
f 15/35/10 16/20/10 13/19/10 14/6/10 9/5/10 10/34/10 11/33/10 12/36/10
f 3/23/11 8/28/11 29/31/11 24/30/11
f 15/35/12 12/36/12 17/37/12 20/38/12
f 7/27/13 6/26/13 27/16/13 30/15/13
f 24/30/14 17/29/14 18/39/14 23/40/14
f 28/41/15 25/42/15 26/17/15 27/16/15
f 20/32/16 29/31/16 30/43/16 19/44/16
f 32/45/17 21/46/17 22/11/17 31/10/17
f 19/21/18 16/20/18 15/35/18 20/38/18
f 11/33/19 18/9/19 17/37/19 12/36/19
f 21/1/20 2/14/20 1/25/20 22/11/20
f 3/23/21 24/30/21 23/12/21 4/24/21
f 25/7/22 14/6/22 13/19/22 26/22/22
f 29/31/23 8/28/23 7/27/23 30/15/23
f 5/13/24 28/4/24 27/16/24 6/26/24
f 9/5/25 32/8/25 31/10/25 10/34/25
f 1/25/26 4/24/26 23/12/26 22/11/26
