# MagicaVoxel @ Ephtracy

# group
o 

# material
mtllib Book1.mtl
usemtl palette

# normals
vn -1 0 0
vn 1 0 0
vn 0 0 1
vn 0 0 -1
vn 0 -1 0
vn 0 1 0

# texcoords
vt 0.224609 0.5
vt 0.521484 0.5
vt 0.919922 0.5

# verts
v -0.5 0 0.2
v -0.5 0 -0.2
v -0.5 1 0.2
v -0.5 1 -0.2
v -0.4 0 0.1
v -0.4 0 -0.1
v -0.4 0.1 0.1
v -0.4 0.1 -0.1
v -0.4 0.9 0.1
v -0.4 0.9 -0.1
v -0.4 1 0.1
v -0.4 1 -0.1
v 0.4 0.1 0.1
v 0.4 0.1 -0.1
v 0.4 0.9 0.1
v 0.4 0.9 -0.1
v 0.5 0 0.2
v 0.5 0 0.1
v 0.5 0 -0.1
v 0.5 0 -0.2
v 0.5 1 0.2
v 0.5 1 0.1
v 0.5 1 -0.1
v 0.5 1 -0.2
v -0.5 0 0.2
v -0.5 1 0.2
v -0.4 0.8 0.2
v -0.4 0.9 0.2
v -0.3 0.7 0.2
v -0.3 0.8 0.2
v -0.3 0.9 0.2
v -0.2 0.6 0.2
v -0.2 0.7 0.2
v -0.2 0.8 0.2
v -0.1 0.1 0.2
v -0.1 0.2 0.2
v -0.1 0.6 0.2
v -0.1 0.7 0.2
v -0.1 0.8 0.2
v 0 0.1 0.2
v 0 0.2 0.2
v 0 0.3 0.2
v 0 0.7 0.2
v 0 0.8 0.2
v 0 0.9 0.2
v 0.1 0.2 0.2
v 0.1 0.3 0.2
v 0.1 0.4 0.2
v 0.1 0.8 0.2
v 0.1 0.9 0.2
v 0.2 0.2 0.2
v 0.2 0.3 0.2
v 0.2 0.4 0.2
v 0.3 0.1 0.2
v 0.3 0.2 0.2
v 0.3 0.3 0.2
v 0.4 0.1 0.2
v 0.4 0.2 0.2
v 0.5 0 0.2
v 0.5 1 0.2
v -0.4 0 -0.1
v -0.4 0.1 -0.1
v -0.4 0.9 -0.1
v -0.4 1 -0.1
v 0.4 0.1 -0.1
v 0.4 0.9 -0.1
v 0.5 0 -0.1
v 0.5 1 -0.1
v -0.4 0 0.1
v -0.4 0.1 0.1
v -0.4 0.9 0.1
v -0.4 1 0.1
v 0.4 0.1 0.1
v 0.4 0.9 0.1
v 0.5 0 0.1
v 0.5 1 0.1
v -0.5 0 -0.2
v -0.5 1 -0.2
v 0.5 0 -0.2
v 0.5 1 -0.2
v -0.5 0 0.2
v 0.5 0 0.2
v -0.4 0 0.1
v 0.5 0 0.1
v -0.4 0 -0.1
v 0.5 0 -0.1
v -0.5 0 -0.2
v 0.5 0 -0.2
v -0.4 0.1 0.1
v 0.4 0.1 0.1
v -0.4 0.1 -0.1
v 0.4 0.1 -0.1
v -0.4 0.9 0.1
v 0.4 0.9 0.1
v -0.4 0.9 -0.1
v 0.4 0.9 -0.1
v -0.5 1 0.2
v 0.5 1 0.2
v -0.4 1 0.1
v 0.5 1 0.1
v -0.4 1 -0.1
v 0.5 1 -0.1
v -0.5 1 -0.2
v 0.5 1 -0.2

# faces
f 3/1/1 2/1/1 1/1/1
f 4/1/1 2/1/1 3/1/1
f 5/1/2 6/1/2 7/1/2
f 7/1/2 6/1/2 8/1/2
f 9/1/2 10/1/2 11/1/2
f 11/1/2 10/1/2 12/1/2
f 13/3/2 14/3/2 15/3/2
f 15/3/2 14/3/2 16/3/2
f 17/1/2 18/1/2 21/1/2
f 21/1/2 18/1/2 22/1/2
f 19/1/2 20/1/2 23/1/2
f 23/1/2 20/1/2 24/1/2
f 27/1/3 26/1/3 25/1/3
f 28/1/3 26/1/3 27/1/3
f 29/1/3 27/1/3 25/1/3
f 30/2/3 28/2/3 27/2/3
f 30/1/3 27/1/3 29/1/3
f 31/1/3 26/1/3 28/1/3
f 31/2/3 28/2/3 30/2/3
f 32/1/3 29/1/3 25/1/3
f 33/2/3 30/2/3 29/2/3
f 33/1/3 29/1/3 32/1/3
f 34/1/3 31/1/3 30/1/3
f 34/2/3 30/2/3 33/2/3
f 35/1/3 32/1/3 25/1/3
f 36/1/3 32/1/3 35/1/3
f 37/2/3 33/2/3 32/2/3
f 37/1/3 32/1/3 36/1/3
f 38/1/3 34/1/3 33/1/3
f 38/2/3 33/2/3 37/2/3
f 39/1/3 31/1/3 34/1/3
f 39/1/3 34/1/3 38/1/3
f 40/2/3 36/2/3 35/2/3
f 40/1/3 35/1/3 25/1/3
f 41/1/3 38/1/3 37/1/3
f 41/2/3 36/2/3 40/2/3
f 41/1/3 37/1/3 36/1/3
f 42/1/3 38/1/3 41/1/3
f 43/2/3 39/2/3 38/2/3
f 43/1/3 38/1/3 42/1/3
f 44/1/3 31/1/3 39/1/3
f 44/2/3 39/2/3 43/2/3
f 45/1/3 26/1/3 31/1/3
f 45/1/3 31/1/3 44/1/3
f 46/2/3 42/2/3 41/2/3
f 46/1/3 41/1/3 40/1/3
f 47/1/3 44/1/3 43/1/3
f 47/2/3 42/2/3 46/2/3
f 47/1/3 43/1/3 42/1/3
f 48/1/3 44/1/3 47/1/3
f 49/2/3 45/2/3 44/2/3
f 49/1/3 44/1/3 48/1/3
f 50/1/3 26/1/3 45/1/3
f 50/2/3 45/2/3 49/2/3
f 51/1/3 46/1/3 40/1/3
f 51/1/3 47/1/3 46/1/3
f 52/2/3 48/2/3 47/2/3
f 52/1/3 47/1/3 51/1/3
f 53/1/3 49/1/3 48/1/3
f 53/2/3 48/2/3 52/2/3
f 53/1/3 50/1/3 49/1/3
f 54/1/3 40/1/3 25/1/3
f 54/1/3 51/1/3 40/1/3
f 55/2/3 52/2/3 51/2/3
f 55/1/3 51/1/3 54/1/3
f 56/1/3 53/1/3 52/1/3
f 56/2/3 52/2/3 55/2/3
f 57/2/3 55/2/3 54/2/3
f 57/1/3 54/1/3 25/1/3
f 58/1/3 56/1/3 55/1/3
f 58/2/3 55/2/3 57/2/3
f 59/1/3 57/1/3 25/1/3
f 59/1/3 58/1/3 57/1/3
f 60/1/3 50/1/3 53/1/3
f 60/1/3 58/1/3 59/1/3
f 60/1/3 26/1/3 50/1/3
f 60/1/3 56/1/3 58/1/3
f 60/1/3 53/1/3 56/1/3
f 65/1/3 62/1/3 61/1/3
f 66/1/3 64/1/3 63/1/3
f 67/1/3 65/1/3 61/1/3
f 67/1/3 66/1/3 65/1/3
f 68/1/3 64/1/3 66/1/3
f 68/1/3 66/1/3 67/1/3
f 69/1/4 70/1/4 73/1/4
f 71/1/4 72/1/4 74/1/4
f 69/1/4 73/1/4 75/1/4
f 73/1/4 74/1/4 75/1/4
f 74/1/4 72/1/4 76/1/4
f 75/1/4 74/1/4 76/1/4
f 77/1/4 78/1/4 79/1/4
f 79/1/4 78/1/4 80/1/4
f 83/1/5 82/1/5 81/1/5
f 84/1/5 82/1/5 83/1/5
f 85/1/5 83/1/5 81/1/5
f 87/1/5 85/1/5 81/1/5
f 87/1/5 86/1/5 85/1/5
f 88/1/5 86/1/5 87/1/5
f 91/3/5 90/3/5 89/3/5
f 92/3/5 90/3/5 91/3/5
f 93/3/6 94/3/6 95/3/6
f 95/3/6 94/3/6 96/3/6
f 97/1/6 98/1/6 99/1/6
f 99/1/6 98/1/6 100/1/6
f 97/1/6 99/1/6 101/1/6
f 97/1/6 101/1/6 103/1/6
f 101/1/6 102/1/6 103/1/6
f 103/1/6 102/1/6 104/1/6
