# MagicaVoxel @ Ephtracy

# group
o 

# material
mtllib Book5.mtl
usemtl palette

# normals
vn -1 0 0
vn 1 0 0
vn 0 0 1
vn 0 0 -1
vn 0 -1 0
vn 0 1 0

# texcoords
vt 0.224609 0.5
vt 0.419922 0.5
vt 0.634766 0.5
vt 0.759766 0.5

# verts
v -0.5 0 0.2
v -0.5 0 -0.3
v -0.5 0.3 0.1
v -0.5 0.3 -0.2
v -0.5 0.4 0
v -0.5 0.4 -0.1
v -0.5 0.5 0.1
v -0.5 0.5 0
v -0.5 0.5 -0.1
v -0.5 0.5 -0.2
v -0.5 0.6 0.1
v -0.5 0.6 -0.2
v -0.5 0.7 0.1
v -0.5 0.7 0
v -0.5 0.8 0.1
v -0.5 0.8 0
v -0.5 0.8 -0.2
v -0.5 0.9 0.1
v -0.5 0.9 0
v -0.5 0.9 -0.1
v -0.5 0.9 -0.2
v -0.5 1 0.1
v -0.5 1 -0.1
v -0.5 1 -0.2
v -0.5 1.1 0.1
v -0.5 1.1 -0.1
v -0.5 1.1 -0.2
v -0.5 1.2 -0.1
v -0.5 1.2 -0.2
v -0.5 1.5 0.2
v -0.5 1.5 -0.3
v -0.4 0 0.1
v -0.4 0 -0.2
v -0.4 0.1 0.1
v -0.4 0.1 -0.2
v -0.4 1.4 0.1
v -0.4 1.4 -0.2
v -0.4 1.5 0.1
v -0.4 1.5 -0.2
v 0.4 0.1 0.1
v 0.4 0.1 -0.2
v 0.4 1.4 0.1
v 0.4 1.4 -0.2
v 0.5 0 0.2
v 0.5 0 0.1
v 0.5 0 -0.2
v 0.5 0 -0.3
v 0.5 1.5 0.2
v 0.5 1.5 0.1
v 0.5 1.5 -0.2
v 0.5 1.5 -0.3
v -0.5 0 0.2
v -0.5 1.5 0.2
v -0.3 0.1 0.2
v -0.3 0.2 0.2
v -0.3 0.4 0.2
v -0.3 0.5 0.2
v -0.3 0.9 0.2
v -0.3 1.3 0.2
v -0.2 0.3 0.2
v -0.2 0.4 0.2
v -0.2 0.6 0.2
v -0.2 0.7 0.2
v -0.2 0.9 0.2
v -0.2 1.3 0.2
v -0.1 0.1 0.2
v -0.1 0.2 0.2
v -0.1 0.4 0.2
v -0.1 0.5 0.2
v -0.1 1 0.2
v -0.1 1.1 0.2
v -0.1 1.3 0.2
v -0.1 1.4 0.2
v 0 0.2 0.2
v 0 0.3 0.2
v 0 0.4 0.2
v 0 0.8 0.2
v 0 1 0.2
v 0.1 0.4 0.2
v 0.1 0.5 0.2
v 0.1 0.8 0.2
v 0.1 1.1 0.2
v 0.1 1.3 0.2
v 0.1 1.4 0.2
v 0.2 0.3 0.2
v 0.2 0.4 0.2
v 0.2 0.5 0.2
v 0.2 0.7 0.2
v 0.2 0.9 0.2
v 0.2 1 0.2
v 0.2 1.4 0.2
v 0.3 0.2 0.2
v 0.3 0.4 0.2
v 0.3 0.6 0.2
v 0.3 0.9 0.2
v 0.3 1 0.2
v 0.3 1.4 0.2
v 0.5 0 0.2
v 0.5 1.5 0.2
v -0.4 0 -0.2
v -0.4 0.1 -0.2
v -0.4 1.4 -0.2
v -0.4 1.5 -0.2
v 0.4 0.1 -0.2
v 0.4 1.4 -0.2
v 0.5 0 -0.2
v 0.5 1.5 -0.2
v -0.4 0 0.1
v -0.4 0.1 0.1
v -0.4 1.4 0.1
v -0.4 1.5 0.1
v 0.4 0.1 0.1
v 0.4 1.4 0.1
v 0.5 0 0.1
v 0.5 1.5 0.1
v -0.5 0 -0.3
v -0.5 1.5 -0.3
v 0.5 0 -0.3
v 0.5 1.5 -0.3
v -0.5 0 0.2
v 0.5 0 0.2
v -0.4 0 0.1
v 0.5 0 0.1
v -0.4 0 -0.2
v 0.5 0 -0.2
v -0.5 0 -0.3
v 0.5 0 -0.3
v -0.4 0.1 0.1
v 0.4 0.1 0.1
v -0.4 0.1 -0.2
v 0.4 0.1 -0.2
v -0.4 1.4 0.1
v 0.4 1.4 0.1
v -0.4 1.4 -0.2
v 0.4 1.4 -0.2
v -0.5 1.5 0.2
v 0.5 1.5 0.2
v -0.4 1.5 0.1
v 0.5 1.5 0.1
v -0.4 1.5 -0.2
v 0.5 1.5 -0.2
v -0.5 1.5 -0.3
v 0.5 1.5 -0.3

# faces
f 3/1/1 2/1/1 1/1/1
f 4/1/1 2/1/1 3/1/1
f 5/4/1 4/4/1 3/4/1
f 6/4/1 4/4/1 5/4/1
f 7/1/1 3/1/1 1/1/1
f 7/4/1 5/4/1 3/4/1
f 8/1/1 6/1/1 5/1/1
f 8/4/1 5/4/1 7/4/1
f 9/4/1 4/4/1 6/4/1
f 9/1/1 6/1/1 8/1/1
f 10/1/1 2/1/1 4/1/1
f 10/4/1 4/4/1 9/4/1
f 11/1/1 8/1/1 7/1/1
f 11/1/1 9/1/1 8/1/1
f 11/1/1 10/1/1 9/1/1
f 11/1/1 7/1/1 1/1/1
f 12/1/1 2/1/1 10/1/1
f 12/1/1 10/1/1 11/1/1
f 13/1/1 11/1/1 1/1/1
f 13/4/1 12/4/1 11/4/1
f 14/4/1 12/4/1 13/4/1
f 15/1/1 13/1/1 1/1/1
f 15/1/1 14/1/1 13/1/1
f 16/4/1 12/4/1 14/4/1
f 16/1/1 14/1/1 15/1/1
f 17/1/1 2/1/1 12/1/1
f 17/4/1 12/4/1 16/4/1
f 18/4/1 16/4/1 15/4/1
f 18/1/1 15/1/1 1/1/1
f 19/1/1 17/1/1 16/1/1
f 19/4/1 16/4/1 18/4/1
f 20/1/1 17/1/1 19/1/1
f 21/1/1 2/1/1 17/1/1
f 21/1/1 17/1/1 20/1/1
f 22/1/1 20/1/1 19/1/1
f 22/1/1 18/1/1 1/1/1
f 22/1/1 19/1/1 18/1/1
f 23/4/1 21/4/1 20/4/1
f 23/1/1 20/1/1 22/1/1
f 24/1/1 2/1/1 21/1/1
f 24/4/1 21/4/1 23/4/1
f 25/4/1 23/4/1 22/4/1
f 25/1/1 22/1/1 1/1/1
f 26/1/1 24/1/1 23/1/1
f 26/4/1 23/4/1 25/4/1
f 27/1/1 2/1/1 24/1/1
f 27/1/1 24/1/1 26/1/1
f 28/1/1 26/1/1 25/1/1
f 28/4/1 27/4/1 26/4/1
f 29/1/1 2/1/1 27/1/1
f 29/4/1 27/4/1 28/4/1
f 30/1/1 28/1/1 25/1/1
f 30/1/1 25/1/1 1/1/1
f 30/1/1 29/1/1 28/1/1
f 31/1/1 2/1/1 29/1/1
f 31/1/1 29/1/1 30/1/1
f 32/1/2 33/1/2 34/1/2
f 34/1/2 33/1/2 35/1/2
f 36/1/2 37/1/2 38/1/2
f 38/1/2 37/1/2 39/1/2
f 40/2/2 41/2/2 42/2/2
f 42/2/2 41/2/2 43/2/2
f 44/1/2 45/1/2 48/1/2
f 48/1/2 45/1/2 49/1/2
f 46/1/2 47/1/2 50/1/2
f 50/1/2 47/1/2 51/1/2
f 54/1/3 53/1/3 52/1/3
f 55/1/3 53/1/3 54/1/3
f 56/1/3 53/1/3 55/1/3
f 57/1/3 53/1/3 56/1/3
f 58/1/3 53/1/3 57/1/3
f 59/1/3 53/1/3 58/1/3
f 60/1/3 56/1/3 55/1/3
f 61/3/3 57/3/3 56/3/3
f 61/1/3 56/1/3 60/1/3
f 62/1/3 58/1/3 57/1/3
f 63/1/3 58/1/3 62/1/3
f 64/3/3 59/3/3 58/3/3
f 64/1/3 58/1/3 63/1/3
f 65/1/3 53/1/3 59/1/3
f 65/3/3 59/3/3 64/3/3
f 66/1/3 54/1/3 52/1/3
f 66/3/3 55/3/3 54/3/3
f 67/1/3 60/1/3 55/1/3
f 67/3/3 55/3/3 66/3/3
f 68/3/3 57/3/3 61/3/3
f 68/3/3 61/3/3 60/3/3
f 69/1/3 62/1/3 57/1/3
f 69/3/3 57/3/3 68/3/3
f 70/1/3 65/1/3 64/1/3
f 70/1/3 64/1/3 63/1/3
f 71/1/3 65/1/3 70/1/3
f 72/1/3 53/1/3 65/1/3
f 72/1/3 65/1/3 71/1/3
f 73/1/3 53/1/3 72/1/3
f 74/1/3 60/1/3 67/1/3
f 74/1/3 67/1/3 66/1/3
f 75/3/3 68/3/3 60/3/3
f 75/1/3 60/1/3 74/1/3
f 76/1/3 69/1/3 68/1/3
f 76/3/3 68/3/3 75/3/3
f 77/1/3 70/1/3 63/1/3
f 78/3/3 71/3/3 70/3/3
f 78/1/3 70/1/3 77/1/3
f 79/1/3 69/1/3 76/1/3
f 79/1/3 76/1/3 75/1/3
f 80/1/3 62/1/3 69/1/3
f 80/1/3 69/1/3 79/1/3
f 81/1/3 77/1/3 63/1/3
f 81/3/3 78/3/3 77/3/3
f 82/3/3 71/3/3 78/3/3
f 82/3/3 78/3/3 81/3/3
f 82/1/3 72/1/3 71/1/3
f 83/3/3 73/3/3 72/3/3
f 83/1/3 72/1/3 82/1/3
f 84/1/3 53/1/3 73/1/3
f 84/3/3 73/3/3 83/3/3
f 85/1/3 79/1/3 75/1/3
f 85/3/3 75/3/3 74/3/3
f 86/3/3 80/3/3 79/3/3
f 86/1/3 79/1/3 85/1/3
f 87/1/3 62/1/3 80/1/3
f 87/3/3 80/3/3 86/3/3
f 88/1/3 84/1/3 83/1/3
f 88/1/3 83/1/3 82/1/3
f 88/3/3 63/3/3 62/3/3
f 88/1/3 82/1/3 81/1/3
f 88/1/3 81/1/3 63/1/3
f 89/1/3 84/1/3 88/1/3
f 90/1/3 84/1/3 89/1/3
f 91/1/3 53/1/3 84/1/3
f 91/1/3 84/1/3 90/1/3
f 92/3/3 86/3/3 85/3/3
f 92/3/3 85/3/3 74/3/3
f 92/1/3 74/1/3 66/1/3
f 93/1/3 87/1/3 86/1/3
f 93/3/3 86/3/3 92/3/3
f 94/1/3 62/1/3 87/1/3
f 94/1/3 87/1/3 93/1/3
f 94/3/3 89/3/3 88/3/3
f 94/3/3 88/3/3 62/3/3
f 95/1/3 90/1/3 89/1/3
f 95/3/3 89/3/3 94/3/3
f 96/3/3 91/3/3 90/3/3
f 96/1/3 90/1/3 95/1/3
f 97/1/3 53/1/3 91/1/3
f 97/3/3 91/3/3 96/3/3
f 98/1/3 96/1/3 95/1/3
f 98/1/3 94/1/3 93/1/3
f 98/1/3 97/1/3 96/1/3
f 98/1/3 95/1/3 94/1/3
f 98/1/3 92/1/3 66/1/3
f 98/1/3 66/1/3 52/1/3
f 98/1/3 93/1/3 92/1/3
f 99/1/3 53/1/3 97/1/3
f 99/1/3 97/1/3 98/1/3
f 104/1/3 101/1/3 100/1/3
f 105/1/3 103/1/3 102/1/3
f 106/1/3 104/1/3 100/1/3
f 106/1/3 105/1/3 104/1/3
f 107/1/3 103/1/3 105/1/3
f 107/1/3 105/1/3 106/1/3
f 108/1/4 109/1/4 112/1/4
f 110/1/4 111/1/4 113/1/4
f 108/1/4 112/1/4 114/1/4
f 112/1/4 113/1/4 114/1/4
f 113/1/4 111/1/4 115/1/4
f 114/1/4 113/1/4 115/1/4
f 116/1/4 117/1/4 118/1/4
f 118/1/4 117/1/4 119/1/4
f 122/1/5 121/1/5 120/1/5
f 123/1/5 121/1/5 122/1/5
f 124/1/5 122/1/5 120/1/5
f 126/1/5 124/1/5 120/1/5
f 126/1/5 125/1/5 124/1/5
f 127/1/5 125/1/5 126/1/5
f 130/2/5 129/2/5 128/2/5
f 131/2/5 129/2/5 130/2/5
f 132/2/6 133/2/6 134/2/6
f 134/2/6 133/2/6 135/2/6
f 136/1/6 137/1/6 138/1/6
f 138/1/6 137/1/6 139/1/6
f 136/1/6 138/1/6 140/1/6
f 136/1/6 140/1/6 142/1/6
f 140/1/6 141/1/6 142/1/6
f 142/1/6 141/1/6 143/1/6
