# MagicaVoxel @ Ephtracy

# group
o 

# material
mtllib Book2.mtl
usemtl palette

# normals
vn -1 0 0
vn 1 0 0
vn 0 0 1
vn 0 0 -1
vn 0 -1 0
vn 0 1 0

# texcoords
vt 0.373047 0.5
vt 0.712891 0.5
vt 0.716797 0.5
vt 0.966797 0.5

# verts
v -0.5 0 0.2
v -0.5 0 -0.3
v -0.5 0.1 0.2
v -0.5 0.1 -0.3
v -0.5 0.2 0.2
v -0.5 0.2 -0.3
v -0.5 0.8 0.2
v -0.5 0.8 -0.3
v -0.5 0.9 0.2
v -0.5 0.9 -0.3
v -0.5 1 0.2
v -0.5 1 -0.3
v -0.4 0 0.1
v -0.4 0 -0.2
v -0.4 0.1 0.1
v -0.4 0.1 -0.2
v -0.4 0.9 0.1
v -0.4 0.9 -0.2
v -0.4 1 0.1
v -0.4 1 -0.2
v 0.4 0.1 0.1
v 0.4 0.1 -0.2
v 0.4 0.9 0.1
v 0.4 0.9 -0.2
v 0.5 0 0.2
v 0.5 0 0.1
v 0.5 0 -0.2
v 0.5 0 -0.3
v 0.5 1 0.2
v 0.5 1 0.1
v 0.5 1 -0.2
v 0.5 1 -0.3
v -0.5 0 0.2
v -0.5 0.1 0.2
v -0.5 0.2 0.2
v -0.5 0.8 0.2
v -0.5 0.9 0.2
v -0.5 1 0.2
v -0.4 0.1 0.2
v -0.4 0.2 0.2
v -0.4 0.7 0.2
v -0.4 0.8 0.2
v -0.4 0.9 0.2
v -0.1 0.1 0.2
v -0.1 0.2 0.2
v -0.1 0.3 0.2
v 0 0.2 0.2
v 0 0.3 0.2
v 0 0.4 0.2
v 0 0.7 0.2
v 0 0.8 0.2
v 0.1 0.3 0.2
v 0.1 0.4 0.2
v 0.1 0.5 0.2
v 0.1 0.8 0.2
v 0.1 0.9 0.2
v 0.2 0.2 0.2
v 0.2 0.3 0.2
v 0.2 0.4 0.2
v 0.2 0.5 0.2
v 0.2 0.6 0.2
v 0.3 0.2 0.2
v 0.3 0.3 0.2
v 0.3 0.5 0.2
v 0.3 0.6 0.2
v 0.4 0.3 0.2
v 0.4 0.5 0.2
v 0.4 0.8 0.2
v 0.4 0.9 0.2
v 0.5 0 0.2
v 0.5 1 0.2
v -0.4 0 -0.2
v -0.4 0.1 -0.2
v -0.4 0.9 -0.2
v -0.4 1 -0.2
v 0.4 0.1 -0.2
v 0.4 0.9 -0.2
v 0.5 0 -0.2
v 0.5 1 -0.2
v -0.4 0 0.1
v -0.4 0.1 0.1
v -0.4 0.9 0.1
v -0.4 1 0.1
v 0.4 0.1 0.1
v 0.4 0.9 0.1
v 0.5 0 0.1
v 0.5 1 0.1
v -0.5 0 -0.3
v -0.5 0.1 -0.3
v -0.5 0.2 -0.3
v -0.5 0.8 -0.3
v -0.5 0.9 -0.3
v -0.5 1 -0.3
v -0.4 0.1 -0.3
v -0.4 0.2 -0.3
v -0.4 0.8 -0.3
v -0.4 0.9 -0.3
v 0.5 0 -0.3
v 0.5 1 -0.3
v -0.5 0 0.2
v 0.5 0 0.2
v -0.4 0 0.1
v 0.5 0 0.1
v -0.4 0 -0.2
v 0.5 0 -0.2
v -0.5 0 -0.3
v 0.5 0 -0.3
v -0.4 0.1 0.1
v 0.4 0.1 0.1
v -0.4 0.1 -0.2
v 0.4 0.1 -0.2
v -0.4 0.9 0.1
v 0.4 0.9 0.1
v -0.4 0.9 -0.2
v 0.4 0.9 -0.2
v -0.5 1 0.2
v 0.5 1 0.2
v -0.4 1 0.1
v 0.5 1 0.1
v -0.4 1 -0.2
v 0.5 1 -0.2
v -0.5 1 -0.3
v 0.5 1 -0.3

# faces
f 3/3/1 2/3/1 1/3/1
f 4/3/1 2/3/1 3/3/1
f 5/1/1 4/1/1 3/1/1
f 6/1/1 4/1/1 5/1/1
f 7/3/1 6/3/1 5/3/1
f 8/3/1 6/3/1 7/3/1
f 9/1/1 8/1/1 7/1/1
f 10/1/1 8/1/1 9/1/1
f 11/3/1 10/3/1 9/3/1
f 12/3/1 10/3/1 11/3/1
f 13/3/2 14/3/2 15/3/2
f 15/3/2 14/3/2 16/3/2
f 17/3/2 18/3/2 19/3/2
f 19/3/2 18/3/2 20/3/2
f 21/4/2 22/4/2 23/4/2
f 23/4/2 22/4/2 24/4/2
f 25/3/2 26/3/2 29/3/2
f 29/3/2 26/3/2 30/3/2
f 27/3/2 28/3/2 31/3/2
f 31/3/2 28/3/2 32/3/2
f 39/3/3 34/3/3 33/3/3
f 39/1/3 35/1/3 34/1/3
f 40/3/3 36/3/3 35/3/3
f 40/1/3 35/1/3 39/1/3
f 41/3/3 36/3/3 40/3/3
f 42/1/3 37/1/3 36/1/3
f 42/3/3 36/3/3 41/3/3
f 43/3/3 38/3/3 37/3/3
f 43/1/3 37/1/3 42/1/3
f 44/3/3 39/3/3 33/3/3
f 44/2/3 40/2/3 39/2/3
f 45/3/3 41/3/3 40/3/3
f 45/2/3 40/2/3 44/2/3
f 46/3/3 41/3/3 45/3/3
f 47/3/3 45/3/3 44/3/3
f 47/2/3 46/2/3 45/2/3
f 48/3/3 41/3/3 46/3/3
f 48/2/3 46/2/3 47/2/3
f 49/3/3 41/3/3 48/3/3
f 50/2/3 42/2/3 41/2/3
f 50/3/3 41/3/3 49/3/3
f 51/3/3 43/3/3 42/3/3
f 51/2/3 42/2/3 50/2/3
f 52/2/3 49/2/3 48/2/3
f 52/3/3 48/3/3 47/3/3
f 53/3/3 50/3/3 49/3/3
f 53/2/3 49/2/3 52/2/3
f 53/3/3 51/3/3 50/3/3
f 54/3/3 51/3/3 53/3/3
f 55/3/3 43/3/3 51/3/3
f 55/3/3 51/3/3 54/3/3
f 56/3/3 38/3/3 43/3/3
f 56/3/3 43/3/3 55/3/3
f 57/3/3 52/3/3 47/3/3
f 57/3/3 47/3/3 44/3/3
f 57/3/3 53/3/3 52/3/3
f 58/3/3 53/3/3 57/3/3
f 59/2/3 54/2/3 53/2/3
f 59/3/3 53/3/3 58/3/3
f 60/3/3 55/3/3 54/3/3
f 60/2/3 54/2/3 59/2/3
f 61/3/3 55/3/3 60/3/3
f 62/2/3 58/2/3 57/2/3
f 62/3/3 57/3/3 44/3/3
f 63/3/3 59/3/3 58/3/3
f 63/2/3 58/2/3 62/2/3
f 63/3/3 60/3/3 59/3/3
f 64/2/3 61/2/3 60/2/3
f 64/3/3 60/3/3 63/3/3
f 65/3/3 55/3/3 61/3/3
f 65/2/3 61/2/3 64/2/3
f 66/2/3 64/2/3 63/2/3
f 66/3/3 63/3/3 62/3/3
f 67/3/3 65/3/3 64/3/3
f 67/2/3 64/2/3 66/2/3
f 68/3/3 55/3/3 65/3/3
f 68/3/3 65/3/3 67/3/3
f 68/2/3 56/2/3 55/2/3
f 69/3/3 38/3/3 56/3/3
f 69/2/3 56/2/3 68/2/3
f 70/3/3 67/3/3 66/3/3
f 70/3/3 44/3/3 33/3/3
f 70/3/3 69/3/3 68/3/3
f 70/3/3 66/3/3 62/3/3
f 70/3/3 68/3/3 67/3/3
f 70/3/3 62/3/3 44/3/3
f 71/3/3 38/3/3 69/3/3
f 71/3/3 69/3/3 70/3/3
f 76/3/3 73/3/3 72/3/3
f 77/3/3 75/3/3 74/3/3
f 78/3/3 76/3/3 72/3/3
f 78/3/3 77/3/3 76/3/3
f 79/3/3 75/3/3 77/3/3
f 79/3/3 77/3/3 78/3/3
f 80/3/4 81/3/4 84/3/4
f 82/3/4 83/3/4 85/3/4
f 80/3/4 84/3/4 86/3/4
f 84/3/4 85/3/4 86/3/4
f 85/3/4 83/3/4 87/3/4
f 86/3/4 85/3/4 87/3/4
f 88/3/4 89/3/4 94/3/4
f 89/1/4 90/1/4 94/1/4
f 90/3/4 91/3/4 95/3/4
f 94/1/4 90/1/4 95/1/4
f 91/1/4 92/1/4 96/1/4
f 95/3/4 91/3/4 96/3/4
f 92/3/4 93/3/4 97/3/4
f 96/1/4 92/1/4 97/1/4
f 95/3/4 96/3/4 98/3/4
f 94/3/4 95/3/4 98/3/4
f 96/3/4 97/3/4 98/3/4
f 88/3/4 94/3/4 98/3/4
f 97/3/4 93/3/4 99/3/4
f 98/3/4 97/3/4 99/3/4
f 102/3/5 101/3/5 100/3/5
f 103/3/5 101/3/5 102/3/5
f 104/3/5 102/3/5 100/3/5
f 106/3/5 104/3/5 100/3/5
f 106/3/5 105/3/5 104/3/5
f 107/3/5 105/3/5 106/3/5
f 110/4/5 109/4/5 108/4/5
f 111/4/5 109/4/5 110/4/5
f 112/4/6 113/4/6 114/4/6
f 114/4/6 113/4/6 115/4/6
f 116/3/6 117/3/6 118/3/6
f 118/3/6 117/3/6 119/3/6
f 116/3/6 118/3/6 120/3/6
f 116/3/6 120/3/6 122/3/6
f 120/3/6 121/3/6 122/3/6
f 122/3/6 121/3/6 123/3/6
