# MagicaVoxel @ Ephtracy

# group
o 

# material
mtllib Book3.mtl
usemtl palette

# normals
vn -1 0 0
vn 1 0 0
vn 0 0 1
vn 0 0 -1
vn 0 -1 0
vn 0 1 0

# texcoords
vt 0.0878906 0.5
vt 0.330078 0.5
vt 0.712891 0.5
vt 0.970703 0.5

# verts
v -0.5 0 0.2
v -0.5 0 -0.2
v -0.5 0.1 0.2
v -0.5 0.1 -0.2
v -0.5 0.2 0.2
v -0.5 0.2 -0.2
v -0.5 1.3 0.2
v -0.5 1.3 -0.2
v -0.5 1.4 0.2
v -0.5 1.4 -0.2
v -0.5 1.5 0.2
v -0.5 1.5 -0.2
v -0.4 0 0.1
v -0.4 0 -0.1
v -0.4 0.1 0.1
v -0.4 0.1 -0.1
v -0.4 1.4 0.1
v -0.4 1.4 -0.1
v -0.4 1.5 0.1
v -0.4 1.5 -0.1
v 0.4 0.1 0.1
v 0.4 0.1 -0.1
v 0.4 0.2 0.1
v 0.4 0.2 -0.1
v 0.4 1.3 0.1
v 0.4 1.3 -0.1
v 0.4 1.4 0.1
v 0.4 1.4 -0.1
v 0.5 0 0.2
v 0.5 0 0.1
v 0.5 0 -0.1
v 0.5 0 -0.2
v 0.5 0.1 0.2
v 0.5 0.1 0.1
v 0.5 0.1 -0.1
v 0.5 0.1 -0.2
v 0.5 0.2 0.2
v 0.5 0.2 0.1
v 0.5 0.2 -0.1
v 0.5 0.2 -0.2
v 0.5 1.3 0.2
v 0.5 1.3 0.1
v 0.5 1.3 -0.1
v 0.5 1.3 -0.2
v 0.5 1.4 0.2
v 0.5 1.4 0.1
v 0.5 1.4 -0.1
v 0.5 1.4 -0.2
v 0.5 1.5 0.2
v 0.5 1.5 0.1
v 0.5 1.5 -0.1
v 0.5 1.5 -0.2
v -0.5 0 0.2
v -0.5 0.1 0.2
v -0.5 0.2 0.2
v -0.5 1.3 0.2
v -0.5 1.4 0.2
v -0.5 1.5 0.2
v -0.4 1.1 0.2
v -0.4 1.2 0.2
v -0.3 0.2 0.2
v -0.3 0.5 0.2
v -0.3 1.2 0.2
v -0.3 1.3 0.2
v -0.2 0.3 0.2
v -0.2 0.4 0.2
v -0.2 0.7 0.2
v -0.2 1 0.2
v -0.2 1.1 0.2
v -0.2 1.3 0.2
v -0.1 0.4 0.2
v -0.1 0.5 0.2
v -0.1 0.7 0.2
v -0.1 0.8 0.2
v -0.1 0.9 0.2
v -0.1 1 0.2
v 0 0.2 0.2
v 0 0.3 0.2
v 0 1.1 0.2
v 0 1.2 0.2
v 0.1 0.2 0.2
v 0.1 0.3 0.2
v 0.1 0.5 0.2
v 0.1 0.7 0.2
v 0.1 0.8 0.2
v 0.1 0.9 0.2
v 0.2 0.4 0.2
v 0.2 0.5 0.2
v 0.2 0.9 0.2
v 0.2 1.1 0.2
v 0.3 0.4 0.2
v 0.3 0.7 0.2
v 0.3 0.9 0.2
v 0.3 1 0.2
v 0.3 1.2 0.2
v 0.4 0.2 0.2
v 0.4 0.3 0.2
v 0.4 0.7 0.2
v 0.4 1 0.2
v 0.5 0 0.2
v 0.5 0.1 0.2
v 0.5 0.2 0.2
v 0.5 1.3 0.2
v 0.5 1.4 0.2
v 0.5 1.5 0.2
v -0.4 0 -0.1
v -0.4 0.1 -0.1
v -0.4 1.4 -0.1
v -0.4 1.5 -0.1
v 0.4 0.1 -0.1
v 0.4 0.2 -0.1
v 0.4 1.3 -0.1
v 0.4 1.4 -0.1
v 0.5 0 -0.1
v 0.5 0.1 -0.1
v 0.5 0.2 -0.1
v 0.5 1.3 -0.1
v 0.5 1.4 -0.1
v 0.5 1.5 -0.1
v -0.4 0 0.1
v -0.4 0.1 0.1
v -0.4 1.4 0.1
v -0.4 1.5 0.1
v 0.4 0.1 0.1
v 0.4 0.2 0.1
v 0.4 1.3 0.1
v 0.4 1.4 0.1
v 0.5 0 0.1
v 0.5 0.1 0.1
v 0.5 0.2 0.1
v 0.5 1.3 0.1
v 0.5 1.4 0.1
v 0.5 1.5 0.1
v -0.5 0 -0.2
v -0.5 0.1 -0.2
v -0.5 0.2 -0.2
v -0.5 1.3 -0.2
v -0.5 1.4 -0.2
v -0.5 1.5 -0.2
v 0.5 0 -0.2
v 0.5 0.1 -0.2
v 0.5 0.2 -0.2
v 0.5 1.3 -0.2
v 0.5 1.4 -0.2
v 0.5 1.5 -0.2
v -0.5 0 0.2
v 0.5 0 0.2
v -0.4 0 0.1
v 0.5 0 0.1
v -0.4 0 -0.1
v 0.5 0 -0.1
v -0.5 0 -0.2
v 0.5 0 -0.2
v -0.4 0.1 0.1
v 0.4 0.1 0.1
v -0.4 0.1 -0.1
v 0.4 0.1 -0.1
v -0.4 1.4 0.1
v 0.4 1.4 0.1
v -0.4 1.4 -0.1
v 0.4 1.4 -0.1
v -0.5 1.5 0.2
v 0.5 1.5 0.2
v -0.4 1.5 0.1
v 0.5 1.5 0.1
v -0.4 1.5 -0.1
v 0.5 1.5 -0.1
v -0.5 1.5 -0.2
v 0.5 1.5 -0.2

# faces
f 3/1/1 2/1/1 1/1/1
f 4/1/1 2/1/1 3/1/1
f 5/2/1 4/2/1 3/2/1
f 6/2/1 4/2/1 5/2/1
f 7/1/1 6/1/1 5/1/1
f 8/1/1 6/1/1 7/1/1
f 9/2/1 8/2/1 7/2/1
f 10/2/1 8/2/1 9/2/1
f 11/1/1 10/1/1 9/1/1
f 12/1/1 10/1/1 11/1/1
f 13/1/2 14/1/2 15/1/2
f 15/1/2 14/1/2 16/1/2
f 17/1/2 18/1/2 19/1/2
f 19/1/2 18/1/2 20/1/2
f 21/4/2 22/4/2 23/4/2
f 23/4/2 22/4/2 24/4/2
f 23/4/2 24/4/2 25/4/2
f 25/4/2 24/4/2 26/4/2
f 25/4/2 26/4/2 27/4/2
f 27/4/2 26/4/2 28/4/2
f 29/1/2 30/1/2 33/1/2
f 33/1/2 30/1/2 34/1/2
f 31/1/2 32/1/2 35/1/2
f 35/1/2 32/1/2 36/1/2
f 33/2/2 34/2/2 37/2/2
f 37/2/2 34/2/2 38/2/2
f 35/2/2 36/2/2 39/2/2
f 39/2/2 36/2/2 40/2/2
f 37/1/2 38/1/2 41/1/2
f 41/1/2 38/1/2 42/1/2
f 39/1/2 40/1/2 43/1/2
f 43/1/2 40/1/2 44/1/2
f 41/2/2 42/2/2 45/2/2
f 45/2/2 42/2/2 46/2/2
f 43/2/2 44/2/2 47/2/2
f 47/2/2 44/2/2 48/2/2
f 45/1/2 46/1/2 49/1/2
f 49/1/2 46/1/2 50/1/2
f 47/1/2 48/1/2 51/1/2
f 51/1/2 48/1/2 52/1/2
f 59/1/3 56/1/3 55/1/3
f 60/1/3 56/1/3 59/1/3
f 61/2/3 55/2/3 54/2/3
f 61/1/3 59/1/3 55/1/3
f 62/1/3 59/1/3 61/1/3
f 63/1/3 56/1/3 60/1/3
f 63/3/3 60/3/3 59/3/3
f 64/2/3 57/2/3 56/2/3
f 64/1/3 56/1/3 63/1/3
f 65/3/3 62/3/3 61/3/3
f 66/3/3 62/3/3 65/3/3
f 67/1/3 59/1/3 62/1/3
f 68/1/3 59/1/3 67/1/3
f 69/3/3 63/3/3 59/3/3
f 69/1/3 59/1/3 68/1/3
f 69/3/3 64/3/3 63/3/3
f 70/2/3 57/2/3 64/2/3
f 70/3/3 64/3/3 69/3/3
f 71/3/3 62/3/3 66/3/3
f 71/1/3 66/1/3 65/1/3
f 72/1/3 67/1/3 62/1/3
f 72/3/3 62/3/3 71/3/3
f 73/3/3 68/3/3 67/3/3
f 73/1/3 67/1/3 72/1/3
f 74/3/3 68/3/3 73/3/3
f 75/3/3 68/3/3 74/3/3
f 76/1/3 69/1/3 68/1/3
f 76/3/3 68/3/3 75/3/3
f 76/1/3 70/1/3 69/1/3
f 77/2/3 61/2/3 54/2/3
f 77/3/3 65/3/3 61/3/3
f 78/1/3 72/1/3 71/1/3
f 78/3/3 65/3/3 77/3/3
f 78/1/3 71/1/3 65/1/3
f 78/1/3 73/1/3 72/1/3
f 78/1/3 74/1/3 73/1/3
f 79/1/3 70/1/3 76/1/3
f 79/1/3 76/1/3 75/1/3
f 80/1/3 70/1/3 79/1/3
f 81/2/3 77/2/3 54/2/3
f 81/1/3 78/1/3 77/1/3
f 82/1/3 74/1/3 78/1/3
f 82/1/3 78/1/3 81/1/3
f 83/1/3 74/1/3 82/1/3
f 84/1/3 74/1/3 83/1/3
f 85/3/3 75/3/3 74/3/3
f 85/1/3 74/1/3 84/1/3
f 86/1/3 79/1/3 75/1/3
f 86/3/3 75/3/3 85/3/3
f 87/1/3 83/1/3 82/1/3
f 88/3/3 84/3/3 83/3/3
f 88/1/3 83/1/3 87/1/3
f 89/1/3 85/1/3 84/1/3
f 89/1/3 79/1/3 86/1/3
f 89/1/3 86/1/3 85/1/3
f 90/3/3 80/3/3 79/3/3
f 90/1/3 79/1/3 89/1/3
f 91/1/3 87/1/3 82/1/3
f 91/3/3 88/3/3 87/3/3
f 92/1/3 89/1/3 84/1/3
f 92/3/3 88/3/3 91/3/3
f 92/3/3 84/3/3 88/3/3
f 93/3/3 90/3/3 89/3/3
f 93/1/3 89/1/3 92/1/3
f 94/3/3 90/3/3 93/3/3
f 95/1/3 70/1/3 80/1/3
f 95/3/3 90/3/3 94/3/3
f 95/3/3 80/3/3 90/3/3
f 96/2/3 81/2/3 54/2/3
f 96/3/3 82/3/3 81/3/3
f 97/1/3 91/1/3 82/1/3
f 97/3/3 82/3/3 96/3/3
f 97/1/3 92/1/3 91/1/3
f 98/3/3 94/3/3 93/3/3
f 98/1/3 92/1/3 97/1/3
f 98/3/3 93/3/3 92/3/3
f 99/1/3 95/1/3 94/1/3
f 99/3/3 94/3/3 98/3/3
f 100/1/3 54/1/3 53/1/3
f 101/2/3 96/2/3 54/2/3
f 101/1/3 54/1/3 100/1/3
f 102/1/3 97/1/3 96/1/3
f 102/2/3 96/2/3 101/2/3
f 102/1/3 98/1/3 97/1/3
f 102/1/3 99/1/3 98/1/3
f 103/1/3 95/1/3 99/1/3
f 103/1/3 99/1/3 102/1/3
f 103/2/3 57/2/3 70/2/3
f 103/1/3 70/1/3 95/1/3
f 104/1/3 58/1/3 57/1/3
f 104/2/3 57/2/3 103/2/3
f 105/1/3 58/1/3 104/1/3
f 110/1/3 107/1/3 106/1/3
f 113/1/3 109/1/3 108/1/3
f 114/1/3 110/1/3 106/1/3
f 115/2/3 111/2/3 110/2/3
f 115/1/3 110/1/3 114/1/3
f 116/1/3 112/1/3 111/1/3
f 116/2/3 111/2/3 115/2/3
f 117/2/3 113/2/3 112/2/3
f 117/1/3 112/1/3 116/1/3
f 118/1/3 109/1/3 113/1/3
f 118/2/3 113/2/3 117/2/3
f 119/1/3 109/1/3 118/1/3
f 120/1/4 121/1/4 124/1/4
f 122/1/4 123/1/4 127/1/4
f 120/1/4 124/1/4 128/1/4
f 124/2/4 125/2/4 129/2/4
f 128/1/4 124/1/4 129/1/4
f 125/1/4 126/1/4 130/1/4
f 129/2/4 125/2/4 130/2/4
f 126/2/4 127/2/4 131/2/4
f 130/1/4 126/1/4 131/1/4
f 127/1/4 123/1/4 132/1/4
f 131/2/4 127/2/4 132/2/4
f 132/1/4 123/1/4 133/1/4
f 134/1/4 135/1/4 140/1/4
f 135/2/4 136/2/4 141/2/4
f 140/1/4 135/1/4 141/1/4
f 136/1/4 137/1/4 142/1/4
f 141/2/4 136/2/4 142/2/4
f 137/2/4 138/2/4 143/2/4
f 142/1/4 137/1/4 143/1/4
f 138/1/4 139/1/4 144/1/4
f 143/2/4 138/2/4 144/2/4
f 144/1/4 139/1/4 145/1/4
f 148/1/5 147/1/5 146/1/5
f 149/1/5 147/1/5 148/1/5
f 150/1/5 148/1/5 146/1/5
f 152/1/5 150/1/5 146/1/5
f 152/1/5 151/1/5 150/1/5
f 153/1/5 151/1/5 152/1/5
f 156/4/5 155/4/5 154/4/5
f 157/4/5 155/4/5 156/4/5
f 158/4/6 159/4/6 160/4/6
f 160/4/6 159/4/6 161/4/6
f 162/1/6 163/1/6 164/1/6
f 164/1/6 163/1/6 165/1/6
f 162/1/6 164/1/6 166/1/6
f 162/1/6 166/1/6 168/1/6
f 166/1/6 167/1/6 168/1/6
f 168/1/6 167/1/6 169/1/6
