# MagicaVoxel @ Ephtracy

# group
o 

# material
mtllib Book4.mtl
usemtl palette

# normals
vn -1 0 0
vn 1 0 0
vn 0 0 1
vn 0 0 -1
vn 0 -1 0
vn 0 1 0

# texcoords
vt 0.767578 0.5
vt 0.775391 0.5
vt 0.845703 0.5
vt 0.962891 0.5

# verts
v -0.5 0 0.2
v -0.5 0 -0.2
v -0.5 0.1 0.2
v -0.5 0.1 -0.2
v -0.5 0.2 0.2
v -0.5 0.2 -0.2
v -0.5 1.3 0.2
v -0.5 1.3 -0.2
v -0.5 1.4 0.2
v -0.5 1.4 -0.2
v -0.5 1.5 0.2
v -0.5 1.5 -0.2
v -0.4 0 0.1
v -0.4 0 -0.1
v -0.4 0.1 0.1
v -0.4 0.1 -0.1
v -0.4 1.4 0.1
v -0.4 1.4 -0.1
v -0.4 1.5 0.1
v -0.4 1.5 -0.1
v 0.4 0.1 0.1
v 0.4 0.1 -0.1
v 0.4 0.2 0.1
v 0.4 0.2 -0.1
v 0.4 1.3 0.1
v 0.4 1.3 -0.1
v 0.4 1.4 0.1
v 0.4 1.4 -0.1
v 0.5 0 0.2
v 0.5 0 0.1
v 0.5 0 -0.1
v 0.5 0 -0.2
v 0.5 0.1 0.2
v 0.5 0.1 0.1
v 0.5 0.1 -0.1
v 0.5 0.1 -0.2
v 0.5 0.2 0.2
v 0.5 0.2 0.1
v 0.5 0.2 -0.1
v 0.5 0.2 -0.2
v 0.5 1.3 0.2
v 0.5 1.3 0.1
v 0.5 1.3 -0.1
v 0.5 1.3 -0.2
v 0.5 1.4 0.2
v 0.5 1.4 0.1
v 0.5 1.4 -0.1
v 0.5 1.4 -0.2
v 0.5 1.5 0.2
v 0.5 1.5 0.1
v 0.5 1.5 -0.1
v 0.5 1.5 -0.2
v -0.5 0 0.2
v -0.5 0.1 0.2
v -0.5 0.2 0.2
v -0.5 1.3 0.2
v -0.5 1.4 0.2
v -0.5 1.5 0.2
v -0.3 1 0.2
v -0.3 1.1 0.2
v -0.2 0.7 0.2
v -0.2 0.8 0.2
v 0.2 0.7 0.2
v 0.2 0.8 0.2
v 0.3 1 0.2
v 0.3 1.1 0.2
v 0.5 0 0.2
v 0.5 0.1 0.2
v 0.5 0.2 0.2
v 0.5 1.3 0.2
v 0.5 1.4 0.2
v 0.5 1.5 0.2
v -0.4 0 -0.1
v -0.4 0.1 -0.1
v -0.4 1.4 -0.1
v -0.4 1.5 -0.1
v 0.4 0.1 -0.1
v 0.4 0.2 -0.1
v 0.4 1.3 -0.1
v 0.4 1.4 -0.1
v 0.5 0 -0.1
v 0.5 0.1 -0.1
v 0.5 0.2 -0.1
v 0.5 1.3 -0.1
v 0.5 1.4 -0.1
v 0.5 1.5 -0.1
v -0.4 0 0.1
v -0.4 0.1 0.1
v -0.4 1.4 0.1
v -0.4 1.5 0.1
v 0.4 0.1 0.1
v 0.4 0.2 0.1
v 0.4 1.3 0.1
v 0.4 1.4 0.1
v 0.5 0 0.1
v 0.5 0.1 0.1
v 0.5 0.2 0.1
v 0.5 1.3 0.1
v 0.5 1.4 0.1
v 0.5 1.5 0.1
v -0.5 0 -0.2
v -0.5 0.1 -0.2
v -0.5 0.2 -0.2
v -0.5 1.3 -0.2
v -0.5 1.4 -0.2
v -0.5 1.5 -0.2
v 0.5 0 -0.2
v 0.5 0.1 -0.2
v 0.5 0.2 -0.2
v 0.5 1.3 -0.2
v 0.5 1.4 -0.2
v 0.5 1.5 -0.2
v -0.5 0 0.2
v 0.5 0 0.2
v -0.4 0 0.1
v 0.5 0 0.1
v -0.4 0 -0.1
v 0.5 0 -0.1
v -0.5 0 -0.2
v 0.5 0 -0.2
v -0.4 0.1 0.1
v 0.4 0.1 0.1
v -0.4 0.1 -0.1
v 0.4 0.1 -0.1
v -0.4 1.4 0.1
v 0.4 1.4 0.1
v -0.4 1.4 -0.1
v 0.4 1.4 -0.1
v -0.5 1.5 0.2
v 0.5 1.5 0.2
v -0.4 1.5 0.1
v 0.5 1.5 0.1
v -0.4 1.5 -0.1
v 0.5 1.5 -0.1
v -0.5 1.5 -0.2
v 0.5 1.5 -0.2

# faces
f 3/3/1 2/3/1 1/3/1
f 4/3/1 2/3/1 3/3/1
f 5/2/1 4/2/1 3/2/1
f 6/2/1 4/2/1 5/2/1
f 7/3/1 6/3/1 5/3/1
f 8/3/1 6/3/1 7/3/1
f 9/2/1 8/2/1 7/2/1
f 10/2/1 8/2/1 9/2/1
f 11/3/1 10/3/1 9/3/1
f 12/3/1 10/3/1 11/3/1
f 13/3/2 14/3/2 15/3/2
f 15/3/2 14/3/2 16/3/2
f 17/3/2 18/3/2 19/3/2
f 19/3/2 18/3/2 20/3/2
f 21/4/2 22/4/2 23/4/2
f 23/4/2 22/4/2 24/4/2
f 23/4/2 24/4/2 25/4/2
f 25/4/2 24/4/2 26/4/2
f 25/4/2 26/4/2 27/4/2
f 27/4/2 26/4/2 28/4/2
f 29/3/2 30/3/2 33/3/2
f 33/3/2 30/3/2 34/3/2
f 31/3/2 32/3/2 35/3/2
f 35/3/2 32/3/2 36/3/2
f 33/2/2 34/2/2 37/2/2
f 37/2/2 34/2/2 38/2/2
f 35/2/2 36/2/2 39/2/2
f 39/2/2 36/2/2 40/2/2
f 37/3/2 38/3/2 41/3/2
f 41/3/2 38/3/2 42/3/2
f 39/3/2 40/3/2 43/3/2
f 43/3/2 40/3/2 44/3/2
f 41/2/2 42/2/2 45/2/2
f 45/2/2 42/2/2 46/2/2
f 43/2/2 44/2/2 47/2/2
f 47/2/2 44/2/2 48/2/2
f 45/3/2 46/3/2 49/3/2
f 49/3/2 46/3/2 50/3/2
f 47/3/2 48/3/2 51/3/2
f 51/3/2 48/3/2 52/3/2
f 59/3/3 56/3/3 55/3/3
f 60/3/3 56/3/3 59/3/3
f 61/3/3 59/3/3 55/3/3
f 62/3/3 59/3/3 61/3/3
f 63/3/3 61/3/3 55/3/3
f 63/1/3 62/1/3 61/1/3
f 64/3/3 59/3/3 62/3/3
f 64/1/3 62/1/3 63/1/3
f 65/1/3 60/1/3 59/1/3
f 65/3/3 59/3/3 64/3/3
f 65/3/3 64/3/3 63/3/3
f 66/3/3 56/3/3 60/3/3
f 66/1/3 60/1/3 65/1/3
f 67/3/3 54/3/3 53/3/3
f 68/2/3 55/2/3 54/2/3
f 68/3/3 54/3/3 67/3/3
f 69/3/3 65/3/3 63/3/3
f 69/2/3 55/2/3 68/2/3
f 69/3/3 63/3/3 55/3/3
f 69/3/3 66/3/3 65/3/3
f 70/3/3 56/3/3 66/3/3
f 70/3/3 66/3/3 69/3/3
f 70/2/3 57/2/3 56/2/3
f 71/3/3 58/3/3 57/3/3
f 71/2/3 57/2/3 70/2/3
f 72/3/3 58/3/3 71/3/3
f 77/3/3 74/3/3 73/3/3
f 80/3/3 76/3/3 75/3/3
f 81/3/3 77/3/3 73/3/3
f 82/2/3 78/2/3 77/2/3
f 82/3/3 77/3/3 81/3/3
f 83/3/3 79/3/3 78/3/3
f 83/2/3 78/2/3 82/2/3
f 84/2/3 80/2/3 79/2/3
f 84/3/3 79/3/3 83/3/3
f 85/3/3 76/3/3 80/3/3
f 85/2/3 80/2/3 84/2/3
f 86/3/3 76/3/3 85/3/3
f 87/3/4 88/3/4 91/3/4
f 89/3/4 90/3/4 94/3/4
f 87/3/4 91/3/4 95/3/4
f 91/2/4 92/2/4 96/2/4
f 95/3/4 91/3/4 96/3/4
f 92/3/4 93/3/4 97/3/4
f 96/2/4 92/2/4 97/2/4
f 93/2/4 94/2/4 98/2/4
f 97/3/4 93/3/4 98/3/4
f 94/3/4 90/3/4 99/3/4
f 98/2/4 94/2/4 99/2/4
f 99/3/4 90/3/4 100/3/4
f 101/3/4 102/3/4 107/3/4
f 102/2/4 103/2/4 108/2/4
f 107/3/4 102/3/4 108/3/4
f 103/3/4 104/3/4 109/3/4
f 108/2/4 103/2/4 109/2/4
f 104/2/4 105/2/4 110/2/4
f 109/3/4 104/3/4 110/3/4
f 105/3/4 106/3/4 111/3/4
f 110/2/4 105/2/4 111/2/4
f 111/3/4 106/3/4 112/3/4
f 115/3/5 114/3/5 113/3/5
f 116/3/5 114/3/5 115/3/5
f 117/3/5 115/3/5 113/3/5
f 119/3/5 117/3/5 113/3/5
f 119/3/5 118/3/5 117/3/5
f 120/3/5 118/3/5 119/3/5
f 123/4/5 122/4/5 121/4/5
f 124/4/5 122/4/5 123/4/5
f 125/4/6 126/4/6 127/4/6
f 127/4/6 126/4/6 128/4/6
f 129/3/6 130/3/6 131/3/6
f 131/3/6 130/3/6 132/3/6
f 129/3/6 131/3/6 133/3/6
f 129/3/6 133/3/6 135/3/6
f 133/3/6 134/3/6 135/3/6
f 135/3/6 134/3/6 136/3/6
