# MagicaVoxel @ Ephtracy

# group
o 

# material
mtllib OpenBook1.mtl
usemtl palette

# normals
vn -1 0 0
vn 1 0 0
vn 0 0 1
vn 0 0 -1
vn 0 -1 0
vn 0 1 0

# texcoords
vt 0.177734 0.5
vt 0.404297 0.5
vt 0.712891 0.5
vt 0.958984 0.5
vt 0.982422 0.5

# verts
v -1.2 0 0
v -1.2 0 -0.1
v -1.2 0.1 0
v -1.2 0.1 -0.1
v -1.2 0.2 0
v -1.2 0.2 -0.1
v -1.2 1.3 0
v -1.2 1.3 -0.1
v -1.2 1.4 0
v -1.2 1.4 -0.1
v -1.2 1.5 0
v -1.2 1.5 -0.1
v -1.1 0.1 0.1
v -1.1 0.1 0
v -1.1 0.2 0
v -1.1 1.3 0
v -1.1 1.4 0.1
v -1.1 1.4 0
v -0.1 0 0.1
v -0.1 0 0
v -0.1 0.1 0.1
v -0.1 0.1 0
v -0.1 1.4 0.1
v -0.1 1.4 0
v -0.1 1.5 0.1
v -0.1 1.5 0
v 0.0999999 0 0.1
v 0.0999999 0 0
v 0.0999999 0.1 0.1
v 0.0999999 0.1 0
v 0.0999999 1.4 0.1
v 0.0999999 1.4 0
v 0.0999999 1.5 0.1
v 0.0999999 1.5 0
v 1.1 0.1 0.1
v 1.1 0.1 0
v 1.1 0.2 0
v 1.1 1.3 0
v 1.1 1.4 0.1
v 1.1 1.4 0
v 1.2 0 0
v 1.2 0 -0.1
v 1.2 0.1 0
v 1.2 0.1 -0.1
v 1.2 0.2 0
v 1.2 0.2 -0.1
v 1.2 1.3 0
v 1.2 1.3 -0.1
v 1.2 1.4 0
v 1.2 1.4 -0.1
v 1.2 1.5 0
v 1.2 1.5 -0.1
v -1.1 0.1 0.1
v -1.1 1.4 0.1
v -1 0.2 0.1
v -1 0.3 0.1
v -1 0.4 0.1
v -1 0.5 0.1
v -1 0.6 0.1
v -1 0.7 0.1
v -1 0.8 0.1
v -1 0.9 0.1
v -1 1 0.1
v -1 1.1 0.1
v -1 1.2 0.1
v -1 1.3 0.1
v -0.2 0.2 0.1
v -0.2 0.3 0.1
v -0.2 0.4 0.1
v -0.2 0.5 0.1
v -0.2 0.6 0.1
v -0.2 0.7 0.1
v -0.2 0.8 0.1
v -0.2 0.9 0.1
v -0.2 1 0.1
v -0.2 1.1 0.1
v -0.2 1.2 0.1
v -0.2 1.3 0.1
v -0.1 0 0.1
v -0.1 0.1 0.1
v -0.1 1.4 0.1
v -0.1 1.5 0.1
v 0.0999999 0 0.1
v 0.0999999 0.1 0.1
v 0.0999999 1.4 0.1
v 0.0999999 1.5 0.1
v 0.2 0.2 0.1
v 0.2 0.3 0.1
v 0.2 0.4 0.1
v 0.2 0.5 0.1
v 0.2 0.6 0.1
v 0.2 0.7 0.1
v 0.2 0.8 0.1
v 0.2 0.9 0.1
v 0.2 1 0.1
v 0.2 1.1 0.1
v 0.2 1.2 0.1
v 0.2 1.3 0.1
v 1 0.2 0.1
v 1 0.3 0.1
v 1 0.4 0.1
v 1 0.5 0.1
v 1 0.6 0.1
v 1 0.7 0.1
v 1 0.8 0.1
v 1 0.9 0.1
v 1 1 0.1
v 1 1.1 0.1
v 1 1.2 0.1
v 1 1.3 0.1
v 1.1 0.1 0.1
v 1.1 1.4 0.1
v -1.2 0 0
v -1.2 0.1 0
v -1.2 0.2 0
v -1.2 1.3 0
v -1.2 1.4 0
v -1.2 1.5 0
v -1.1 0.1 0
v -1.1 0.2 0
v -1.1 1.3 0
v -1.1 1.4 0
v -0.1 0 0
v -0.1 0.1 0
v -0.1 1.4 0
v -0.1 1.5 0
v 0.0999999 0 0
v 0.0999999 0.1 0
v 0.0999999 1.4 0
v 0.0999999 1.5 0
v 1.1 0.1 0
v 1.1 0.2 0
v 1.1 1.3 0
v 1.1 1.4 0
v 1.2 0 0
v 1.2 0.1 0
v 1.2 0.2 0
v 1.2 1.3 0
v 1.2 1.4 0
v 1.2 1.5 0
v -1.2 0 -0.1
v -1.2 0.1 -0.1
v -1.2 0.2 -0.1
v -1.2 1.3 -0.1
v -1.2 1.4 -0.1
v -1.2 1.5 -0.1
v -1.1 0.3 -0.1
v -1.1 0.5 -0.1
v -1 0.2 -0.1
v -1 0.3 -0.1
v -1 0.4 -0.1
v -1 0.5 -0.1
v -0.9 0.2 -0.1
v -0.9 0.4 -0.1
v -0.9 0.6 -0.1
v -0.9 0.7 -0.1
v -0.9 0.9 -0.1
v -0.8 0.5 -0.1
v -0.8 0.6 -0.1
v -0.8 0.7 -0.1
v -0.8 0.9 -0.1
v -0.8 1.2 -0.1
v -0.7 0.4 -0.1
v -0.7 0.5 -0.1
v -0.7 0.8 -0.1
v -0.7 0.9 -0.1
v -0.7 1.2 -0.1
v -0.6 0.6 -0.1
v -0.6 0.7 -0.1
v -0.6 0.8 -0.1
v -0.6 0.9 -0.1
v -0.5 0.4 -0.1
v -0.5 0.6 -0.1
v -0.5 1 -0.1
v -0.5 1.1 -0.1
v -0.4 0.4 -0.1
v -0.4 0.6 -0.1
v -0.4 0.7 -0.1
v -0.4 0.8 -0.1
v -0.3 0.2 -0.1
v -0.3 0.4 -0.1
v -0.3 0.6 -0.1
v -0.3 0.8 -0.1
v -0.3 0.9 -0.1
v -0.3 1 -0.1
v -0.3 1.1 -0.1
v -0.3 1.2 -0.1
v -0.2 0.2 -0.1
v -0.2 0.4 -0.1
v -0.2 0.9 -0.1
v -0.2 1.2 -0.1
v 1.2 0 -0.1
v 1.2 0.1 -0.1
v 1.2 0.2 -0.1
v 1.2 1.3 -0.1
v 1.2 1.4 -0.1
v 1.2 1.5 -0.1
v -0.1 0 0.1
v 0.0999999 0 0.1
v -1.2 0 0
v -0.1 0 0
v 0.0999999 0 0
v 1.2 0 0
v -1.2 0 -0.1
v 1.2 0 -0.1
v -1.1 0.1 0.1
v -0.1 0.1 0.1
v 0.0999999 0.1 0.1
v 1.1 0.1 0.1
v -1.1 0.1 0
v -0.1 0.1 0
v 0.0999999 0.1 0
v 1.1 0.1 0
v -1.1 1.4 0.1
v -0.1 1.4 0.1
v 0.0999999 1.4 0.1
v 1.1 1.4 0.1
v -1.1 1.4 0
v -0.1 1.4 0
v 0.0999999 1.4 0
v 1.1 1.4 0
v -0.1 1.5 0.1
v 0.0999999 1.5 0.1
v -1.2 1.5 0
v -0.1 1.5 0
v 0.0999999 1.5 0
v 1.2 1.5 0
v -1.2 1.5 -0.1
v 1.2 1.5 -0.1

# faces
f 3/1/1 2/1/1 1/1/1
f 4/1/1 2/1/1 3/1/1
f 5/2/1 4/2/1 3/2/1
f 6/2/1 4/2/1 5/2/1
f 7/1/1 6/1/1 5/1/1
f 8/1/1 6/1/1 7/1/1
f 9/2/1 8/2/1 7/2/1
f 10/2/1 8/2/1 9/2/1
f 11/1/1 10/1/1 9/1/1
f 12/1/1 10/1/1 11/1/1
f 15/4/1 14/4/1 13/4/1
f 16/4/1 15/4/1 13/4/1
f 17/4/1 16/4/1 13/4/1
f 18/4/1 16/4/1 17/4/1
f 21/1/1 20/1/1 19/1/1
f 22/1/1 20/1/1 21/1/1
f 25/1/1 24/1/1 23/1/1
f 26/1/1 24/1/1 25/1/1
f 27/1/2 28/1/2 29/1/2
f 29/1/2 28/1/2 30/1/2
f 31/1/2 32/1/2 33/1/2
f 33/1/2 32/1/2 34/1/2
f 35/4/2 36/4/2 37/4/2
f 35/4/2 37/4/2 38/4/2
f 35/4/2 38/4/2 39/4/2
f 39/4/2 38/4/2 40/4/2
f 41/1/2 42/1/2 43/1/2
f 43/1/2 42/1/2 44/1/2
f 43/2/2 44/2/2 45/2/2
f 45/2/2 44/2/2 46/2/2
f 45/1/2 46/1/2 47/1/2
f 47/1/2 46/1/2 48/1/2
f 47/2/2 48/2/2 49/2/2
f 49/2/2 48/2/2 50/2/2
f 49/1/2 50/1/2 51/1/2
f 51/1/2 50/1/2 52/1/2
f 55/4/3 54/4/3 53/4/3
f 56/4/3 54/4/3 55/4/3
f 57/4/3 54/4/3 56/4/3
f 58/4/3 54/4/3 57/4/3
f 59/4/3 54/4/3 58/4/3
f 60/4/3 54/4/3 59/4/3
f 61/4/3 54/4/3 60/4/3
f 62/4/3 54/4/3 61/4/3
f 63/4/3 54/4/3 62/4/3
f 64/4/3 54/4/3 63/4/3
f 65/4/3 54/4/3 64/4/3
f 66/4/3 54/4/3 65/4/3
f 67/4/3 55/4/3 53/4/3
f 67/5/3 56/5/3 55/5/3
f 68/4/3 57/4/3 56/4/3
f 68/5/3 56/5/3 67/5/3
f 69/5/3 58/5/3 57/5/3
f 69/4/3 57/4/3 68/4/3
f 70/4/3 59/4/3 58/4/3
f 70/5/3 58/5/3 69/5/3
f 71/5/3 60/5/3 59/5/3
f 71/4/3 59/4/3 70/4/3
f 72/4/3 61/4/3 60/4/3
f 72/5/3 60/5/3 71/5/3
f 73/5/3 62/5/3 61/5/3
f 73/4/3 61/4/3 72/4/3
f 74/4/3 63/4/3 62/4/3
f 74/5/3 62/5/3 73/5/3
f 75/5/3 64/5/3 63/5/3
f 75/4/3 63/4/3 74/4/3
f 76/4/3 65/4/3 64/4/3
f 76/5/3 64/5/3 75/5/3
f 77/5/3 66/5/3 65/5/3
f 77/4/3 65/4/3 76/4/3
f 78/4/3 54/4/3 66/4/3
f 78/5/3 66/5/3 77/5/3
f 80/4/3 77/4/3 76/4/3
f 80/4/3 76/4/3 75/4/3
f 80/4/3 78/4/3 77/4/3
f 80/4/3 75/4/3 74/4/3
f 80/4/3 74/4/3 73/4/3
f 80/4/3 73/4/3 72/4/3
f 80/4/3 72/4/3 71/4/3
f 80/4/3 71/4/3 70/4/3
f 80/4/3 70/4/3 69/4/3
f 80/4/3 69/4/3 68/4/3
f 80/4/3 68/4/3 67/4/3
f 80/4/3 67/4/3 53/4/3
f 81/4/3 54/4/3 78/4/3
f 81/4/3 78/4/3 80/4/3
f 83/1/3 80/1/3 79/1/3
f 83/1/3 82/1/3 81/1/3
f 83/1/3 81/1/3 80/1/3
f 84/1/3 82/1/3 83/1/3
f 85/1/3 82/1/3 84/1/3
f 86/1/3 82/1/3 85/1/3
f 87/4/3 85/4/3 84/4/3
f 88/4/3 85/4/3 87/4/3
f 89/4/3 85/4/3 88/4/3
f 90/4/3 85/4/3 89/4/3
f 91/4/3 85/4/3 90/4/3
f 92/4/3 85/4/3 91/4/3
f 93/4/3 85/4/3 92/4/3
f 94/4/3 85/4/3 93/4/3
f 95/4/3 85/4/3 94/4/3
f 96/4/3 85/4/3 95/4/3
f 97/4/3 85/4/3 96/4/3
f 98/4/3 85/4/3 97/4/3
f 99/4/3 87/4/3 84/4/3
f 99/5/3 88/5/3 87/5/3
f 100/4/3 89/4/3 88/4/3
f 100/5/3 88/5/3 99/5/3
f 101/5/3 90/5/3 89/5/3
f 101/4/3 89/4/3 100/4/3
f 102/4/3 91/4/3 90/4/3
f 102/5/3 90/5/3 101/5/3
f 103/5/3 92/5/3 91/5/3
f 103/4/3 91/4/3 102/4/3
f 104/4/3 93/4/3 92/4/3
f 104/5/3 92/5/3 103/5/3
f 105/5/3 94/5/3 93/5/3
f 105/4/3 93/4/3 104/4/3
f 106/4/3 95/4/3 94/4/3
f 106/5/3 94/5/3 105/5/3
f 107/5/3 96/5/3 95/5/3
f 107/4/3 95/4/3 106/4/3
f 108/4/3 97/4/3 96/4/3
f 108/5/3 96/5/3 107/5/3
f 109/5/3 98/5/3 97/5/3
f 109/4/3 97/4/3 108/4/3
f 110/4/3 85/4/3 98/4/3
f 110/5/3 98/5/3 109/5/3
f 111/4/3 109/4/3 108/4/3
f 111/4/3 108/4/3 107/4/3
f 111/4/3 110/4/3 109/4/3
f 111/4/3 107/4/3 106/4/3
f 111/4/3 106/4/3 105/4/3
f 111/4/3 105/4/3 104/4/3
f 111/4/3 104/4/3 103/4/3
f 111/4/3 103/4/3 102/4/3
f 111/4/3 102/4/3 101/4/3
f 111/4/3 101/4/3 100/4/3
f 111/4/3 100/4/3 99/4/3
f 111/4/3 99/4/3 84/4/3
f 112/4/3 85/4/3 110/4/3
f 112/4/3 110/4/3 111/4/3
f 119/1/3 114/1/3 113/1/3
f 119/2/3 115/2/3 114/2/3
f 120/1/3 116/1/3 115/1/3
f 120/2/3 115/2/3 119/2/3
f 121/2/3 117/2/3 116/2/3
f 121/1/3 116/1/3 120/1/3
f 122/1/3 118/1/3 117/1/3
f 122/2/3 117/2/3 121/2/3
f 123/1/3 119/1/3 113/1/3
f 124/1/3 119/1/3 123/1/3
f 125/1/3 118/1/3 122/1/3
f 126/1/3 118/1/3 125/1/3
f 131/1/3 128/1/3 127/1/3
f 134/1/3 130/1/3 129/1/3
f 135/1/3 131/1/3 127/1/3
f 136/2/3 132/2/3 131/2/3
f 136/1/3 131/1/3 135/1/3
f 137/1/3 133/1/3 132/1/3
f 137/2/3 132/2/3 136/2/3
f 138/2/3 134/2/3 133/2/3
f 138/1/3 133/1/3 137/1/3
f 139/1/3 130/1/3 134/1/3
f 139/2/3 134/2/3 138/2/3
f 140/1/3 130/1/3 139/1/3
f 143/1/4 144/1/4 147/1/4
f 147/1/4 144/1/4 148/1/4
f 142/2/4 143/2/4 149/2/4
f 143/1/4 147/1/4 149/1/4
f 147/3/4 148/3/4 150/3/4
f 149/1/4 147/1/4 150/1/4
f 150/3/4 148/3/4 151/3/4
f 148/1/4 144/1/4 152/1/4
f 151/3/4 148/3/4 152/3/4
f 150/3/4 151/3/4 153/3/4
f 142/2/4 149/2/4 153/2/4
f 149/3/4 150/3/4 153/3/4
f 151/1/4 152/1/4 154/1/4
f 153/3/4 151/3/4 154/3/4
f 152/1/4 144/1/4 155/1/4
f 154/1/4 152/1/4 155/1/4
f 155/1/4 144/1/4 156/1/4
f 156/1/4 144/1/4 157/1/4
f 154/3/4 155/3/4 158/3/4
f 155/1/4 156/1/4 159/1/4
f 158/3/4 155/3/4 159/3/4
f 156/3/4 157/3/4 160/3/4
f 159/1/4 156/1/4 160/1/4
f 157/1/4 144/1/4 161/1/4
f 160/3/4 157/3/4 161/3/4
f 161/1/4 144/1/4 162/1/4
f 153/1/4 154/1/4 163/1/4
f 154/3/4 158/3/4 163/3/4
f 159/1/4 160/1/4 164/1/4
f 163/3/4 158/3/4 164/3/4
f 158/1/4 159/1/4 164/1/4
f 160/1/4 161/1/4 164/1/4
f 164/1/4 161/1/4 165/1/4
f 161/3/4 162/3/4 166/3/4
f 165/1/4 161/1/4 166/1/4
f 162/1/4 144/1/4 167/1/4
f 166/3/4 162/3/4 167/3/4
f 164/1/4 165/1/4 168/1/4
f 163/1/4 164/1/4 168/1/4
f 168/1/4 165/1/4 169/1/4
f 165/3/4 166/3/4 170/3/4
f 169/1/4 165/1/4 170/1/4
f 166/1/4 167/1/4 171/1/4
f 170/3/4 166/3/4 171/3/4
f 153/1/4 163/1/4 172/1/4
f 163/1/4 168/1/4 172/1/4
f 168/3/4 169/3/4 173/3/4
f 172/1/4 168/1/4 173/1/4
f 171/1/4 167/1/4 174/1/4
f 169/1/4 170/1/4 174/1/4
f 170/1/4 171/1/4 174/1/4
f 174/1/4 167/1/4 175/1/4
f 153/1/4 172/1/4 176/1/4
f 172/3/4 173/3/4 176/3/4
f 173/3/4 169/3/4 177/3/4
f 176/3/4 173/3/4 177/3/4
f 169/1/4 174/1/4 178/1/4
f 177/3/4 169/3/4 178/3/4
f 178/1/4 174/1/4 179/1/4
f 142/2/4 153/2/4 180/2/4
f 153/1/4 176/1/4 180/1/4
f 176/1/4 177/1/4 180/1/4
f 180/1/4 177/1/4 181/1/4
f 178/3/4 179/3/4 182/3/4
f 181/1/4 177/1/4 182/1/4
f 177/3/4 178/3/4 182/3/4
f 179/1/4 174/1/4 183/1/4
f 182/3/4 179/3/4 183/3/4
f 183/1/4 174/1/4 184/1/4
f 174/3/4 175/3/4 185/3/4
f 184/1/4 174/1/4 185/1/4
f 175/1/4 167/1/4 186/1/4
f 185/3/4 175/3/4 186/3/4
f 167/1/4 144/1/4 187/1/4
f 186/1/4 167/1/4 187/1/4
f 180/3/4 181/3/4 188/3/4
f 142/2/4 180/2/4 188/2/4
f 181/1/4 182/1/4 189/1/4
f 188/3/4 181/3/4 189/3/4
f 183/1/4 184/1/4 189/1/4
f 182/1/4 183/1/4 189/1/4
f 184/3/4 185/3/4 190/3/4
f 189/1/4 184/1/4 190/1/4
f 185/3/4 186/3/4 190/3/4
f 186/3/4 187/3/4 190/3/4
f 187/1/4 144/1/4 191/1/4
f 190/3/4 187/3/4 191/3/4
f 141/1/4 142/1/4 192/1/4
f 142/2/4 188/2/4 193/2/4
f 192/1/4 142/1/4 193/1/4
f 188/1/4 189/1/4 194/1/4
f 193/2/4 188/2/4 194/2/4
f 189/1/4 190/1/4 194/1/4
f 190/1/4 191/1/4 194/1/4
f 191/1/4 144/1/4 195/1/4
f 194/1/4 191/1/4 195/1/4
f 144/2/4 145/2/4 195/2/4
f 145/1/4 146/1/4 196/1/4
f 195/2/4 145/2/4 196/2/4
f 196/1/4 146/1/4 197/1/4
f 201/1/5 199/1/5 198/1/5
f 202/1/5 199/1/5 201/1/5
f 204/1/5 201/1/5 200/1/5
f 204/1/5 203/1/5 202/1/5
f 204/1/5 202/1/5 201/1/5
f 205/1/5 203/1/5 204/1/5
f 210/4/5 207/4/5 206/4/5
f 211/4/5 207/4/5 210/4/5
f 212/4/5 209/4/5 208/4/5
f 213/4/5 209/4/5 212/4/5
f 214/4/6 215/4/6 218/4/6
f 218/4/6 215/4/6 219/4/6
f 216/4/6 217/4/6 220/4/6
f 220/4/6 217/4/6 221/4/6
f 222/1/6 223/1/6 225/1/6
f 225/1/6 223/1/6 226/1/6
f 224/1/6 225/1/6 228/1/6
f 226/1/6 227/1/6 228/1/6
f 225/1/6 226/1/6 228/1/6
f 228/1/6 227/1/6 229/1/6
