mtllib Beam.mtl
o Default
v -1 4 -1
v -1 5 -1
v -1 5 0
v -1 4 0
v 0 5 0
v -1 5 -1
v -1 5 0
v 0 5 -1
v -1 4 0
v 0 5 0
v -1 5 0
v 0 4 0
v 0 3 0
v 0 4 -1
v 0 4 0
v 0 3 -1
v 0 4 -1
v -1 5 -1
v 0 5 -1
v -1 4 -1
v -1 1 0
v 0 1 -1
v -1 1 -1
v 0 1 0
v 0 0 -1
v -1 1 -1
v 0 1 -1
v -1 0 -1
v -1 0 0
v 0 1 0
v -1 1 0
v 0 0 0
v -1 0 -1
v -1 1 0
v -1 1 -1
v -1 0 0
v 0 0 0
v 0 1 -1
v 0 1 0
v 0 0 -1
v -1 1 0
v 0 2 0
v -1 2 0
v 0 1 0
v -1 2 0
v 0 3 0
v -1 3 0
v 0 2 0
v -1 3 0
v 0 4 0
v -1 4 0
v 0 3 0
v 0 2 0
v 0 3 -1
v 0 3 0
v 0 2 -1
v 0 4 0
v 0 5 -1
v 0 5 0
v 0 4 -1
v 0 1 0
v 0 2 -1
v 0 2 0
v 0 1 -1
vt 0.3333333432674408 0.1666666716337204
vt 0.4444444477558136 0.3333333432674408
vt 0.3333333432674408 0.3333333432674408
vt 0.4444444477558136 0.1666666716337204
vt 0.4444444477558136 0.5
vt 0.3333333432674408 0.5
vn -1 0 0
vn 0 1 0
vn 0 0 1
vn 1 0 0
vn 0 0 -1
g Beam
usemtl Tileset
f 1/1/1 3/2/1 2/3/1
f 1/1/1 4/4/1 3/2/1
f 5/1/2 6/2/2 7/3/2
f 5/1/2 8/4/2 6/2/2
f 9/1/3 10/2/3 11/3/3
f 9/1/3 12/4/3 10/2/3
f 13/3/4 14/5/4 15/6/4
f 13/3/4 16/2/4 14/5/4
f 17/1/5 18/2/5 19/3/5
f 17/1/5 20/4/5 18/2/5
f 21/1/2 22/2/2 23/3/2
f 21/1/2 24/4/2 22/2/2
f 25/1/5 26/2/5 27/3/5
f 25/1/5 28/4/5 26/2/5
f 29/1/3 30/2/3 31/3/3
f 29/1/3 32/4/3 30/2/3
f 33/1/1 34/2/1 35/3/1
f 33/1/1 36/4/1 34/2/1
f 37/1/4 38/2/4 39/3/4
f 37/1/4 40/4/4 38/2/4
f 41/3/3 42/5/3 43/6/3
f 41/3/3 44/2/3 42/5/3
f 45/3/3 46/5/3 47/6/3
f 45/3/3 48/2/3 46/5/3
f 49/3/3 50/5/3 51/6/3
f 49/3/3 52/2/3 50/5/3
f 53/3/4 54/5/4 55/6/4
f 53/3/4 56/2/4 54/5/4
f 57/1/4 58/2/4 59/3/4
f 57/1/4 60/4/4 58/2/4
f 61/3/4 62/5/4 63/6/4
f 61/3/4 64/2/4 62/5/4
