mtllib Crate.mtl
o Default
v -1.875 0 -2
v -1.875 2 -2
v -1.875 2 -8.881784197001252e-16
v -1.875 0 -8.881784197001252e-16
v -1.875 0 -8.881784197001252e-16
v 0.125 0 -2
v 0.125 0 0
v -1.875 0 -2
v 0.125 2 0
v -1.875 2 -2
v -1.875 2 -8.881784197001252e-16
v 0.125 2 -2
v 0.125 0 -1.875
v -1.875 2 -1.875
v 0.125 2 -1.875
v -1.875 0 -1.875
v 0 0 0
v 0 2 -2
v 0 2 0
v 0 0 -2
v -1.875 0 -0.125
v 0.125 2 -0.125
v -1.875 2 -0.125
v 0.125 0 -0.125
v -1.875 0 -8.881784197001252e-16
v -1.875 2 -2
v -1.875 2 -8.881784197001252e-16
v -1.875 0 -2
vt 0.4444444477558136 0
vt 0.6666666865348816 0.3333333432674408
vt 0.4444444477558136 0.3333333432674408
vt 0.6666666865348816 0
vt 0.1111111119389534 0.1666666716337204
vt 0.2222222238779068 0.3333333432674408
vt 0.1111111119389534 0.3333333432674408
vt 0.2222222238779068 0.1666666716337204
vt 0.5347222089767456 0.1354166716337204
vt 0.5763888955116272 0.1979166567325592
vt 0.5347222089767456 0.1979166567325592
vt 0.5763888955116272 0.1354166716337204
vn -1 0 0
vn 0 -1 0
vn 0 1 0
vn 0 0 -1
vn 1 0 0
vn 0 0 1
g Crate
usemtl 1
f 1/1/1 3/2/1 2/3/1
f 1/1/1 4/4/1 3/2/1
f 5/5/2 6/6/2 7/7/2
f 5/5/2 8/8/2 6/6/2
f 9/9/3 10/10/3 11/11/3
f 9/9/3 12/12/3 10/10/3
f 13/1/4 14/2/4 15/3/4
f 13/1/4 16/4/4 14/2/4
f 17/1/5 18/2/5 19/3/5
f 17/1/5 20/4/5 18/2/5
f 21/1/6 22/2/6 23/3/6
f 21/1/6 24/4/6 22/2/6
f 25/1/5 26/2/5 27/3/5
f 25/1/5 28/4/5 26/2/5
